<?xml version="1.0" encoding="UTF-8" standalone="no"?>
<svg
   xmlns:dc="http://purl.org/dc/elements/1.1/"
   xmlns:cc="http://creativecommons.org/ns#"
   xmlns:rdf="http://www.w3.org/1999/02/22-rdf-syntax-ns#"
   xmlns:svg="http://www.w3.org/2000/svg"
   xmlns="http://www.w3.org/2000/svg"
   xmlns:sodipodi="http://sodipodi.sourceforge.net/DTD/sodipodi-0.dtd"
   xmlns:inkscape="http://www.inkscape.org/namespaces/inkscape"
   id="Layer_2"
   data-name="Layer 2"
   viewBox="0 0 1266.75 1324.35"
   version="1.1"
   sodipodi:docname="normal.svg"
   inkscape:version="0.92.5 (2060ec1f9f, 2020-04-08)">
  <metadata
     id="metadata221">
    <rdf:RDF>
      <cc:Work
         rdf:about="">
        <dc:format>image/svg+xml</dc:format>
        <dc:type
           rdf:resource="http://purl.org/dc/dcmitype/StillImage" />
      </cc:Work>
    </rdf:RDF>
  </metadata>
  <sodipodi:namedview
     pagecolor="#ffffff"
     bordercolor="#666666"
     borderopacity="1"
     objecttolerance="10"
     gridtolerance="10"
     guidetolerance="10"
     inkscape:pageopacity="0"
     inkscape:pageshadow="2"
     inkscape:window-width="1920"
     inkscape:window-height="1043"
     id="namedview219"
     showgrid="false"
     inkscape:zoom="0.35640126"
     inkscape:cx="1128.9244"
     inkscape:cy="808.01125"
     inkscape:window-x="1366"
     inkscape:window-y="0"
     inkscape:window-maximized="1"
     inkscape:current-layer="Layer_2" />
  <defs
     id="defs4">
    <style
       id="style2">.cls-1{fill:#d4edf9;}.cls-2{fill:#e2def0;}.cls-3{fill:#fff;}.cls-4{fill:#e9efc6;}.cls-5{fill:#fee9d6;}.cls-6{fill:#dce0dc;}.cls-7{fill:#ffeed9;}.cls-8{fill:#fffae9;}</style>
  </defs>
  <title
     id="title6">unicorn</title>
  <path
     d="M1206.91,1318.36q19.33-21.66,30.12-51.82c7.67-21.61,10.77-44,10.89-66.87a268.19,268.19,0,0,0-6.76-60.62q-1-4.53-2.19-9l2.72-.7c1.49,5.71,3,11.42,4.14,17.19,5.4,26.31,7.13,52.81,3.78,79.57a188.75,188.75,0,0,1-9.11,40.12c-7.32,20.6-17.73,38.69-31.45,54Z"
     id="path8"
     transform="translate(-28.34 -219.02)" />
  <path
     d="M1141.33,888.48a355.06,355.06,0,0,1-27.8,46.44c-10,14.4-20.36,28.61-30.64,42.85-10.91,15.12-21.72,30.3-31.45,46.2l-2.35-1.45c3.85-6.26,7.71-12.52,11.77-18.64,6.12-9.25,12.7-18.2,19.14-27.24,10.47-14.71,21.12-29.29,31.47-44.09a373.85,373.85,0,0,0,25.94-42.92,223.45,223.45,0,0,0,20.3-56l2.71.6A234.48,234.48,0,0,1,1141.33,888.48Z"
     id="path10"
     transform="translate(-28.34 -219.02)" />
  <path
     class="cls-1"
     d="M1011.81,1211.06a131.42,131.42,0,0,0,12.9,34.82,84.89,84.89,0,0,0,12,17c15.76,16.95,34.44,22.51,55.83,17.16q2.81-.69,5.67-1.64a72.68,72.68,0,0,0,23.25-13.11c16.37-13.43,27.53-30.3,32.93-50.83a61.32,61.32,0,0,0,.53-31,47.62,47.62,0,0,0-13.73-23.76c-7.22-6.72-15.73-10.37-25.7-9.91a30.41,30.41,0,0,0-21.31,9.33c-.7.73-1.34,1.47-1.94,2.22-9.9,12.5-6.22,28.44,2.27,36.77l3.17,3.07a17,17,0,0,1-5.94-.65,26.85,26.85,0,0,1-4.15-1.67,33.33,33.33,0,0,1-11.33-9.51,59.87,59.87,0,0,1-11.78-24.93c-3.41-15.87-1.43-31.3,4.23-46.35a94.66,94.66,0,0,1,10.13-19.32c.17-.25.34-.49.52-.73a11.07,11.07,0,0,1,4.77-3.51,68.37,68.37,0,0,1,26.71-4.77,76.26,76.26,0,0,1,39,11.66,95.68,95.68,0,0,1,20.69,17,146.81,146.81,0,0,1,35.32,66.35,95.1,95.1,0,0,1-7.2,65.33c-14.6,29.94-37.65,50.38-69.74,60.1a96.09,96.09,0,0,1-18.5,3.63,123.37,123.37,0,0,1-18.85.32c-40.74-2.28-81.82-26.15-105-61.72-6.82-10.46-11.88-21.62-14.23-33.78q-.5-2.6-.83-5.27a107.7,107.7,0,0,1-1-17.84,258.17,258.17,0,0,1,21.31-92.39,137.87,137.87,0,0,1,19.67-32.68,100.85,100.85,0,0,1,17.5-16.86c.86-.64,1.85-1.11,3.66-2.18-.82,1.94-1.21,3-1.67,4a262.19,262.19,0,0,0-18.6,57,251.94,251.94,0,0,0-4.92,64.72A210.75,210.75,0,0,0,1011.81,1211.06Z"
     id="path12"
     transform="translate(-28.34 -219.02)" />
  <path
     d="M1091.91,1277.46a71.28,71.28,0,0,0,8.47-2.69,62.89,62.89,0,0,0,14.73-8.19c18.25-13.47,30.52-31.09,36.31-53.06,3.07-11.64,3.13-23.25-1.35-34.65a45.36,45.36,0,0,0-13.25-18.93,30.14,30.14,0,0,0-34-3.68,26.38,26.38,0,0,0-8.35,6.71l-2.27-1.59c.6-.75,1.24-1.49,1.94-2.22a30.41,30.41,0,0,1,21.31-9.33c10-.46,18.48,3.19,25.7,9.91a47.62,47.62,0,0,1,13.73,23.76,61.32,61.32,0,0,1-.53,31c-5.4,20.53-16.56,37.4-32.93,50.83a72.68,72.68,0,0,1-23.25,13.11q-2.87.94-5.67,1.64Z"
     id="path14"
     transform="translate(-28.34 -219.02)" />
  <path
     d="M1094.52,1198.15c-8.49-8.33-12.17-24.27-2.27-36.77l2.27,1.59c-6.63,8.16-6.81,19.39-1.38,28.57a18.55,18.55,0,0,0,7.74,7.51,37.39,37.39,0,0,0,6,1.84c.43,1.55-.63,2.13-1.76,2.44a23.57,23.57,0,0,1-10.82.67,32.59,32.59,0,0,1-3.31-.8l.75-2.63a17,17,0,0,0,5.94.65Z"
     id="path16"
     transform="translate(-28.34 -219.02)" />
  <path
     d="M1085,1086.74c10-11.83,22.8-19.48,38-23.55,15.79-4.22,31.54-3.06,47.07,1.55,17.56,5.2,33.15,14.14,47.32,25.61,19,15.41,34.28,34.05,46.84,55a216.39,216.39,0,0,1,27.42,70.48c1.43,7.32,2.66,14.67,2.62,22.17,0,4.65,0,9.3,0,14h-2.1a176.58,176.58,0,0,0-2.8-31.64c-6.82-38.43-23.48-72.2-48.24-102.16-.6-.73-1.35-1.34-2.66-2.62.27,1.76.35,2.67.57,3.55.85,3.44,1.75,6.86,2.64,10.28l-2.72.7q-2.43-9.43-5.53-18.7a11.93,11.93,0,0,0-3.35-5.37c-4.92-4.43-9.63-9.12-14.75-13.32-13.7-11.26-28.88-19.88-45.95-25a87,87,0,0,0-37.83-3.13c-17.4,2.52-31.85,10.72-43.86,23.39a6.39,6.39,0,0,0-.48.59Z"
     id="path18"
     transform="translate(-28.34 -219.02)" />
  <path
     d="M1110.85,1089.78a68.37,68.37,0,0,0-26.71,4.77,11.07,11.07,0,0,0-4.77,3.51l-2-.87c1.19-1.69,2.34-3.42,3.53-5.12,1.3-1.86,2.67-3.64,4.09-5.33l2.24,1.74c-.29.4-.64.92-1.25,1.75,1.65-.31,2.3-.37,2.92-.54,19.76-5.52,38.7-3.13,56.88,6a93.92,93.92,0,0,1,25.74,19.28,146.18,146.18,0,0,1,36.93,67.69c7.26,30,1.62,57.83-15.33,83.49a114.15,114.15,0,0,1-19.48,22.47c-18.65,16.58-39.78,25.49-63,27.75l-.24-2.59a96.09,96.09,0,0,0,18.5-3.63c32.09-9.72,55.14-30.16,69.74-60.1a95.1,95.1,0,0,0,7.2-65.33,146.81,146.81,0,0,0-35.32-66.35,95.68,95.68,0,0,0-20.69-17A76.26,76.26,0,0,0,1110.85,1089.78Z"
     id="path20"
     transform="translate(-28.34 -219.02)" />
  <path
     class="cls-2"
     d="M1000,674.73a103.72,103.72,0,0,1,37.85,19.8,108.15,108.15,0,0,1,17.82,18.91c11.52,15.53,19.06,32.89,23.71,51.57,4,16,5.39,32.31,5.25,48.78a305.3,305.3,0,0,1-5.78,54.28c-4.68,24.75-11.28,49-17.69,73.38Q1048.61,989.24,1036,1037c-.58,2.23-.9,4.54-1.26,6.83a4.62,4.62,0,0,1-2.31,3.61c-.29.16-.55.37-.83.55-13.85,9.07-24.52,21.15-33.07,35.2-8.77,14.4-14.83,30-19.54,46.06a322.34,322.34,0,0,0-9.7,45.13,140,140,0,0,0-.28,40.62c.21,1.37.44,2.74.71,4.09a94.49,94.49,0,0,0,12.71,32.5c13.21,21.15,31.06,37.34,52.89,49.21a129.11,129.11,0,0,0,50.44,15.59,131.66,131.66,0,0,0,24.88,0c23.17-2.26,44.3-11.17,63-27.75a114.15,114.15,0,0,0,19.48-22.47c17-25.66,22.59-53.49,15.33-83.49a146.18,146.18,0,0,0-36.93-67.69,93.92,93.92,0,0,0-25.74-19.28c-18.18-9.17-37.12-11.56-56.88-6-.62.17-1.27.23-2.92.54.61-.83,1-1.35,1.25-1.75a6.39,6.39,0,0,1,.48-.59c12-12.67,26.46-20.87,43.86-23.39a87,87,0,0,1,37.83,3.13c17.07,5.12,32.25,13.74,45.95,25,5.12,4.2,9.83,8.89,14.75,13.32a11.93,11.93,0,0,1,3.35,5.37q3.11,9.27,5.53,18.7,1.17,4.5,2.19,9a268.19,268.19,0,0,1,6.76,60.62c-.12,22.86-3.22,45.26-10.89,66.87q-10.72,30.21-30.12,51.82c-16.57,18.57-37.79,32.53-63.37,42.09a176.89,176.89,0,0,1-91.49,8,11.36,11.36,0,0,1-2.4-.58c-5.49-2.29-11-4.48-16.43-7-27.49-12.68-49.2-32.13-66.3-56.93a203.12,203.12,0,0,1-16.63-29.36c-6.25-13.36-11.76-27-17.06-40.78-.53-1.38-1-2.77-1.51-4.16a155.11,155.11,0,0,1-6.48-30.1c-1.52-11.83-3.09-23.65-4.6-35.48-2.22-17.31-3.07-34.65-1.18-52.06a220.94,220.94,0,0,1,10-46,24.16,24.16,0,0,1,3.47-6.54,499.28,499.28,0,0,0,30.63-47c9.22-16.34,17.06-33.29,22.54-51.29a147.51,147.51,0,0,0,6.64-52q-.29-4.86-.85-9.6c-3.63-30.92-16-58.14-38.53-80.78a110.86,110.86,0,0,0-63.58-32.22l-.85-.12c-28.15-4-54.41,1.17-78.56,16.56-.83.53-1.67,1-2.44,1.52-4.9-2.44-9.56-4.94-14.37-7.1s-9.76-4-15-6.07c.92-1.83,1.68-3.45,2.53-5a201.43,201.43,0,0,1,23.71-34.58q6.18-7.26,13.05-14c26.42-25.86,56.89-45.33,91.82-57.68a169.32,169.32,0,0,1,42.08-9.31C968,669.38,984.21,670.15,1000,674.73Z"
     id="path22"
     transform="translate(-28.34 -219.02)" />
  <path
     d="M1061.56,1167c-3.32-14.76-1.84-29.32,2.41-43.68,2.46-8.3,5.76-16.21,11.18-23.12.77-1,1.5-2,2.21-3l2,.87c-.18.24-.35.48-.52.73a94.66,94.66,0,0,0-10.13,19.32c-5.66,15.05-7.64,30.48-4.23,46.35a59.87,59.87,0,0,0,11.78,24.93,33.33,33.33,0,0,0,11.33,9.51,26.85,26.85,0,0,0,4.15,1.67l-.75,2.63a31.51,31.51,0,0,1-9.34-4.68C1070.81,1190.65,1064.46,1179.88,1061.56,1167Z"
     id="path24"
     transform="translate(-28.34 -219.02)" />
  <path
     class="cls-3"
     d="M1039.65,1037.29l-.12-.12.15-.07Z"
     id="path26"
     transform="translate(-28.34 -219.02)" />
  <path
     class="cls-3"
     d="M1039.53,1037.17l.12.12-.25.14C1039.44,1037.34,1039.49,1037.26,1039.53,1037.17Z"
     id="path28"
     transform="translate(-28.34 -219.02)" />
  <path
     class="cls-3"
     d="M1039.4,1037.43c-.08.15-.15.3-.23.44,0-.11,0-.26.08-.33A.42.42,0,0,1,1039.4,1037.43Z"
     id="path30"
     transform="translate(-28.34 -219.02)" />
  <path
     class="cls-4"
     d="M940.63,811.67c18.06,13.82,30.81,31.75,39.31,52.75a137.14,137.14,0,0,1,9.12,35.47,144.25,144.25,0,0,1,.62,26.81c-1.13,16.48-5.35,32.28-11.29,47.66a279.67,279.67,0,0,1-21.68,43.51c-11.22,18.59-23.13,36.71-36.73,53.67a211.63,211.63,0,0,1-33.07,33.56,146.8,146.8,0,0,1-21,14.08c-.87.48-1.75.94-2.65,1.35a6.88,6.88,0,0,1-1.64.15q-3-31.87-6-63.27-.69-7.4-1.4-14.76,3.66-3.63,6.93-7.47c9.47-11.11,16.64-23.49,22.6-36.68A111.79,111.79,0,0,0,894,955.78c.74-23.48-5.31-44.92-20.43-63.29a62.38,62.38,0,0,0-4.93-5.23c-1.73-1.66-3.51-3.28-5.26-4.92s-3.67-3.35-5.89-3.58c-1.68-4.62-3.23-9.11-4.82-13.52-1-2.65-1.93-5.26-2.94-7.86a123.13,123.13,0,0,0-14.84-27.46,91.91,91.91,0,0,0-20.56-20.73c-.93-.67-1.8-1.42-2.69-2.16-.11-.09-.12-.3-.3-.8.66-.48,1.37-1.08,2.15-1.57a103.74,103.74,0,0,1,40.65-15.1,119.07,119.07,0,0,1,34.42-.28C907.16,791.94,924.55,799.36,940.63,811.67Z"
     id="path32"
     transform="translate(-28.34 -219.02)" />
  <path
     d="M986.56,1252.42c23.21,35.57,64.29,59.44,105,61.72a123.37,123.37,0,0,0,18.85-.32l.24,2.59a131.66,131.66,0,0,1-24.88,0,129.11,129.11,0,0,1-50.44-15.59c-21.83-11.87-39.68-28.06-52.89-49.21a94.49,94.49,0,0,1-12.71-32.5l2.57-.49C974.68,1230.8,979.74,1242,986.56,1252.42Z"
     id="path34"
     transform="translate(-28.34 -219.02)" />
  <path
     d="M1024.71,1245.88a131.42,131.42,0,0,1-12.9-34.82,210.75,210.75,0,0,1-4.33-34,251.94,251.94,0,0,1,4.92-64.72,262.19,262.19,0,0,1,18.6-57c.46-1,.85-2,1.67-4-1.81,1.07-2.8,1.54-3.66,2.18a100.85,100.85,0,0,0-17.5,16.86,137.87,137.87,0,0,0-19.67,32.68,258.17,258.17,0,0,0-21.31,92.39,107.7,107.7,0,0,0,1,17.84q.33,2.67.83,5.27l-2.57.49c-.27-1.35-.5-2.72-.71-4.09a140,140,0,0,1,.28-40.62,322.34,322.34,0,0,1,9.7-45.13c4.71-16.11,10.77-31.66,19.54-46.06,8.55-14,19.22-26.13,33.07-35.2.28-.18.54-.39.83-.55a4.62,4.62,0,0,0,2.31-3.61c.36-2.29.68-4.6,1.26-6.83q12.54-47.81,25.15-95.59c6.41-24.34,13-48.63,17.69-73.38a305.3,305.3,0,0,0,5.78-54.28c.14-16.47-1.26-32.76-5.25-48.78-4.65-18.68-12.19-36-23.71-51.57a108.15,108.15,0,0,0-17.82-18.91l1.51-2.19A120.4,120.4,0,0,1,1067.25,726c12.64,22.18,18.56,46.3,20,71.6,1.4,23.79-1,47.32-5.41,70.67-3.8,20-8.8,39.76-14,59.46q-13.76,52.35-27.49,104.72a44.77,44.77,0,0,0-.74,4.66l-.15.07c0,.09-.09.17-.13.26a.42.42,0,0,0-.15.11c-.07.07,0,.22-.08.33.08-.14.15-.29.23-.44l.25-.14,0-.19c1.41-.65,1.72-2.16,2.45-3.33q3.51-5.61,7-11.25l2.35,1.45q-2.14,3.49-4.21,7c-12.64,21.71-22.76,44.48-28.91,68.92a266.88,266.88,0,0,0-7.78,51,256.6,256.6,0,0,0,.33,33.28c1.27,16.77,4.41,33.15,10.77,48.8a91.75,91.75,0,0,0,12.89,22.87,66.48,66.48,0,0,0,6.62,7.4q22.62,21.13,50.76,14.18l.64,2.59c-21.39,5.35-40.07-.21-55.83-17.16A84.89,84.89,0,0,1,1024.71,1245.88Z"
     id="path36"
     transform="translate(-28.34 -219.02)" />
  <path
     d="M975,1338.56a223.49,223.49,0,0,0,47.52,22.37c1.68.56,3.4,1,5.51,1.67-.46-.69-.57-1-.78-1.12-1.29-.74-2.6-1.44-3.9-2.15a160.58,160.58,0,0,1-47.65-38.47,193.22,193.22,0,0,1-24.06-37,454.69,454.69,0,0,1-21.89-51.64c-.2-.56-.4-1.11-.58-1.67l2.52-.88c.47,1.39,1,2.78,1.51,4.16,5.3,13.75,10.81,27.42,17.06,40.78A203.12,203.12,0,0,0,966.92,1304c17.1,24.8,38.81,44.25,66.3,56.93,5.4,2.49,10.94,4.68,16.43,7a11.36,11.36,0,0,0,2.4.58,176.89,176.89,0,0,0,91.49-8c25.58-9.56,46.8-23.52,63.37-42.09l2.14,1.88a154.08,154.08,0,0,1-38.71,31.13,172,172,0,0,1-64.67,21.29,177.83,177.83,0,0,1-40.66.59,198.45,198.45,0,0,1-53.84-13.27c-39.82-16-73.21-40.58-100.86-72.69l2.08-1.79A268.31,268.31,0,0,0,975,1338.56Z"
     id="path38"
     transform="translate(-28.34 -219.02)" />
  <path
     class="cls-1"
     d="M1022.55,1360.93A223.49,223.49,0,0,1,975,1338.56a268.31,268.31,0,0,1-62.64-53.06q-1.8-2.1-3.56-4.25a176.91,176.91,0,0,1-33.25-61.69c-2.24-7.44-5.13-14.7-6.42-22.41-.52-3.1-1.06-6.2-1.37-9.32-.6-6.27-1-12.55-1.57-18.81-1.31-14.19-2.68-28.36-4-42.54a15.13,15.13,0,0,1,.11-2c24.78-12.49,44.06-31.16,61.07-52.37,1.3.75.71,1.57.52,2.22a211.37,211.37,0,0,0-8.18,67.28,498,498,0,0,0,6.24,55.26c.68,4.24,1.36,8.5,2,12.75a116.08,116.08,0,0,0,5.25,20.9c.18.56.38,1.11.58,1.67a454.69,454.69,0,0,0,21.89,51.64,193.22,193.22,0,0,0,24.06,37,160.58,160.58,0,0,0,47.65,38.47c1.3.71,2.61,1.41,3.9,2.15.21.12.32.43.78,1.12C1026,1362,1024.23,1361.49,1022.55,1360.93Z"
     id="path40"
     transform="translate(-28.34 -219.02)" />
  <path
     d="M889.79,786.58a110.86,110.86,0,0,1,63.58,32.22c22.55,22.64,34.9,49.86,38.53,80.78l-2.84.31a137.14,137.14,0,0,0-9.12-35.47c-8.5-21-21.25-38.93-39.31-52.75-16.08-12.31-33.47-19.73-52.08-22.39l.39-2.82Z"
     id="path42"
     transform="translate(-28.34 -219.02)" />
  <path
     d="M963.52,1414.06c23,12.25,47.54,19,73.43,21.25a244.22,244.22,0,0,0,54-1.47,306.42,306.42,0,0,0,54.59-12.65c23.71-7.76,46.32-17.87,67.21-31.62,18.12-11.94,34.37-26,47.49-43.36,21.06-27.89,31.77-59.32,31.89-94.3h2.1v1.16c0,5.4,0,10.8-.22,16.19-.32,9.48-2.61,18.69-5.33,27.74-8.08,26.93-22.52,50-42.53,69.66-17.67,17.35-38,30.83-60.26,41.6a317.59,317.59,0,0,1-79.51,26.07,259.53,259.53,0,0,1-58.33,4.7c-37.24-1.38-71.79-11.39-102.79-32.52-19.72-13.44-36-30.13-48.26-50.73-8.28-13.94-13.72-29-17.47-44.71a277.86,277.86,0,0,1-6.09-36.23l2.91-.29,0,.29a262.06,262.06,0,0,0,7.06,39.08c5.1,19.59,13,37.85,25.35,54.07A165.16,165.16,0,0,0,963.52,1414.06Z"
     id="path44"
     transform="translate(-28.34 -219.02)" />
  <path
     d="M881.41,909.83a74.52,74.52,0,0,0-15-20.83l2.23-1.74a62.38,62.38,0,0,1,4.93,5.23c15.12,18.37,21.17,39.81,20.43,63.29A111.79,111.79,0,0,1,883.7,998.5c-6,13.19-13.13,25.57-22.6,36.68l-2.41-1.62a163.12,163.12,0,0,0,20.22-31.74c6.58-13.72,10.86-28.05,11.9-43.32A93.92,93.92,0,0,0,881.41,909.83Z"
     id="path46"
     transform="translate(-28.34 -219.02)" />
  <path
     class="cls-4"
     d="M1065,1373.25a177.83,177.83,0,0,0,40.66-.59,172,172,0,0,0,64.67-21.29,154.08,154.08,0,0,0,38.71-31.13c13.72-15.35,24.13-33.44,31.45-54a188.75,188.75,0,0,0,9.11-40.12c3.35-26.76,1.62-53.26-3.78-79.57-1.18-5.77-2.65-11.48-4.14-17.19-.89-3.42-1.79-6.84-2.64-10.28-.22-.88-.3-1.79-.57-3.55,1.31,1.28,2.06,1.89,2.66,2.62,24.76,30,41.42,63.73,48.24,102.16a176.58,176.58,0,0,1,2.8,31.64c-.12,35-10.83,66.41-31.89,94.3-13.12,17.39-29.37,31.42-47.49,43.36-20.89,13.75-43.5,23.86-67.21,31.62a306.42,306.42,0,0,1-54.59,12.65,244.22,244.22,0,0,1-54,1.47c-25.89-2.29-50.46-9-73.43-21.25A165.16,165.16,0,0,1,908.84,1368c-12.31-16.22-20.25-34.48-25.35-54.07a262.06,262.06,0,0,1-7.06-39.08l0-.29c-1.93-18.68-3.66-37.39-5.47-56.08,0-.11.1-.23.28-.62a36.61,36.61,0,0,1,2.39,5,165.29,165.29,0,0,0,29.61,55.87q3.48,4.37,7.1,8.55c27.65,32.11,61,56.71,100.86,72.69A198.45,198.45,0,0,0,1065,1373.25Z"
     id="path48"
     transform="translate(-28.34 -219.02)" />
  <path
     d="M867.79,1187.83c.31,3.12.85,6.22,1.37,9.32,1.29,7.71,4.18,15,6.42,22.41a176.91,176.91,0,0,0,33.25,61.69q1.75,2.14,3.56,4.25l-2.08,1.79q-3.63-4.18-7.1-8.55a165.29,165.29,0,0,1-29.61-55.87,36.61,36.61,0,0,0-2.39-5c-.18.39-.29.51-.28.62,1.81,18.69,3.54,37.4,5.47,56.08l-2.91.29c-2.11-20.6-4.06-41.21-6.08-61.82L865,1188.1Z"
     id="path50"
     transform="translate(-28.34 -219.02)" />
  <path
     d="M852.66,865.24c1.59,4.41,3.14,8.9,4.82,13.52,2.22.23,4.1,1.91,5.89,3.58s3.53,3.26,5.26,4.92L866.4,889c-1.43-1.38-2.93-2.72-4.49-4-.85-.7-1.86-1.21-3.3-2.14.26,1.73.35,2.85.61,3.94a235.34,235.34,0,0,1,6.11,42.73,334.18,334.18,0,0,1-3.28,64.92c-.36,2.49-.73,5-1.14,7.46l-2.89-.46c1.44-9.08,2.59-18.21,3.39-27.39a296.55,296.55,0,0,0,.42-49.15,258.88,258.88,0,0,0-6.21-40.72A181.23,181.23,0,0,0,850,865.45Z"
     id="path52"
     transform="translate(-28.34 -219.02)" />
  <path
     class="cls-2"
     d="M857.09,1035.52c-.69.85-1.13,2.08-2.85,2.24.18-1.31.27-2.55.54-3.75q3.59-16,6.13-32.1c.41-2.48.78-5,1.14-7.46a334.18,334.18,0,0,0,3.28-64.92,235.34,235.34,0,0,0-6.11-42.73c-.26-1.09-.35-2.21-.61-3.94,1.44.93,2.45,1.44,3.3,2.14,1.56,1.28,3.06,2.62,4.49,4a74.52,74.52,0,0,1,15,20.83,93.92,93.92,0,0,1,9.4,48.67c-1,15.27-5.32,29.6-11.9,43.32a163.12,163.12,0,0,1-20.22,31.74C858.16,1034.22,857.63,1034.87,857.09,1035.52Z"
     id="path54"
     transform="translate(-28.34 -219.02)" />
  <path
     d="M919.46,1112c-1.89,17.41-1,34.75,1.18,52.06,1.51,11.83,3.08,23.65,4.6,35.48a155.11,155.11,0,0,0,6.48,30.1l-2.52.88a116.08,116.08,0,0,1-5.25-20.9c-.63-4.25-1.31-8.51-2-12.75a498,498,0,0,1-6.24-55.26,211.37,211.37,0,0,1,8.18-67.28c.19-.65.78-1.47-.52-2.22-17,21.21-36.29,39.88-61.07,52.37a15.13,15.13,0,0,0-.11,2c1.34,14.18,2.71,28.35,4,42.54.58,6.26,1,12.54,1.57,18.81l-2.81.27q-1.07-10.78-2.09-21.58c-1.14-12-2.21-24.08-3.35-36.12-1.16-12.2-2.4-24.39-3.56-36.59-1.15-12-2.24-24.08-3.38-36.12l3-.28q3,31.38,6,63.27a6.88,6.88,0,0,0,1.64-.15c.9-.41,1.78-.87,2.65-1.35a146.8,146.8,0,0,0,21-14.08A211.63,211.63,0,0,0,920,1071.54c13.6-17,25.51-35.08,36.73-53.67a279.67,279.67,0,0,0,21.68-43.51c5.94-15.38,10.16-31.18,11.29-47.66a144.25,144.25,0,0,0-.62-26.81l2.84-.31q.57,4.74.85,9.6a147.51,147.51,0,0,1-6.64,52c-5.48,18-13.32,35-22.54,51.29a499.28,499.28,0,0,1-30.63,47,24.16,24.16,0,0,0-3.47,6.54A220.94,220.94,0,0,0,919.46,1112Z"
     id="path56"
     transform="translate(-28.34 -219.02)" />
  <path
     d="M984.28,668.41A106.87,106.87,0,0,1,1022.75,681a111.67,111.67,0,0,1,16.64,11.37l-1.51,2.19a103.72,103.72,0,0,0-37.85-19.8c-15.82-4.58-32-5.35-48.27-4a169.32,169.32,0,0,0-42.08,9.31c-34.93,12.35-65.4,31.82-91.82,57.68q-6.87,6.72-13.05,14l-2.18-1.85c29.92-35.1,67.24-59.82,111.55-74.45C937,667.94,960.35,665.24,984.28,668.41Z"
     id="path58"
     transform="translate(-28.34 -219.02)" />
  <path
     d="M996.93,595.54c38.35,3.36,72.07,17.8,101.52,42.33,22.46,18.71,38.87,42,50.29,68.76a204.28,204.28,0,0,1,15.3,59.43,216.64,216.64,0,0,1-3.62,68.15l-2.71-.6a214,214,0,0,0-6.8-113c-15.23-43.69-42.54-77.45-83.05-100.2a173.16,173.16,0,0,0-76.56-22.28c-20.79-1.09-40.92,2.48-60.53,9.21-21.53,7.4-41.76,17.62-61.43,29a271.28,271.28,0,0,0-36.41,25c-25,20.49-41.95,46.12-50,77.57l-2.81-.64c.23-.89.47-1.77.71-2.65,8.71-31.78,26.12-57.68,51.93-78.06,17.62-13.91,36.76-25.43,56.56-35.89a267.62,267.62,0,0,1,36.83-16.08,188.91,188.91,0,0,1,39-9.38A150.31,150.31,0,0,1,996.93,595.54Z"
     id="path60"
     transform="translate(-28.34 -219.02)" />
  <path
     d="M817.35,1163.45a1281.48,1281.48,0,0,0-33.05,130.43q-4.15,21-7.57,42.17l-2.77-.45q1.5-9.31,3.06-18.61c4.19-25,9.52-49.77,15.45-74.4,8.31-34.46,18.33-68.44,28.94-102.26,10.81-34.43,21.75-68.83,29.81-104.06,2.64-11.55,5-23.15,6.8-34.82l2.89.46q-2.55,16.14-6.13,32.1c-.27,1.2-.36,2.44-.54,3.75,1.72-.16,2.16-1.39,2.85-2.24.54-.65,1.07-1.3,1.6-2l2.41,1.62q-3.27,3.84-6.93,7.47.71,7.36,1.4,14.76l-3,.28c-.21-2.29-.55-4.57-1-8a20.68,20.68,0,0,0-1.08,2.37C841,1089.65,828.8,1126.44,817.35,1163.45Z"
     id="path62"
     transform="translate(-28.34 -219.02)" />
  <path
     class="cls-5"
     d="M991.3,598.12a173.16,173.16,0,0,1,76.56,22.28c40.51,22.75,67.82,56.51,83.05,100.2a214,214,0,0,1,6.8,113,223.45,223.45,0,0,1-20.3,56,373.85,373.85,0,0,1-25.94,42.92c-10.35,14.8-21,29.38-31.47,44.09-6.44,9-13,18-19.14,27.24-4.06,6.12-7.92,12.38-11.77,18.64q-3.46,5.63-7,11.25c-.73,1.17-1,2.68-2.45,3.33a44.77,44.77,0,0,1,.74-4.66q13.72-52.37,27.49-104.72c5.18-19.7,10.18-39.44,14-59.46,4.44-23.35,6.81-46.88,5.41-70.67-1.49-25.3-7.41-49.42-20-71.6a120.4,120.4,0,0,0-27.86-33.65A111.67,111.67,0,0,0,1022.75,681a106.87,106.87,0,0,0-38.47-12.56c-23.93-3.17-47.32-.47-70.1,7.05-44.31,14.63-81.63,39.35-111.55,74.45q-4.12,4.8-8,9.85a181.88,181.88,0,0,0-16.81,26.36,15.57,15.57,0,0,1-.94,1.76c-.62.88-.77,2.61-2.19,2.29s-.86-1.9-.73-3c.35-3,.75-5.91,1.2-8.86a401.27,401.27,0,0,1,7.79-39.44c8.05-31.45,25-57.08,50-77.57a271.28,271.28,0,0,1,36.41-25c19.67-11.36,39.9-21.58,61.43-29C950.38,600.6,970.51,597,991.3,598.12Z"
     id="path64"
     transform="translate(-28.34 -219.02)" />
  <path
     class="cls-6"
     d="M678.83,1514.12c0-1.61,1-2.75,2.46-2.23,2.58.95,5.22.81,7.84.82,10.6,0,21.19.15,31.78-.06a302.21,302.21,0,0,0,31.66-2.57c1.44-.18,2.9-.22,4.3-.32.82,3.6.81,11,0,16.18a25.91,25.91,0,0,1-3.25.33q-30.52-.75-61.07-1.6a24.16,24.16,0,0,1-6.8-1.14c-4-1.29-6-4.48-6.86-8.43A5.27,5.27,0,0,1,678.83,1514.12Z"
     id="path66"
     transform="translate(-28.34 -219.02)" />
  <path
     d="M683.71,1219c-5.72-5.77-11.47-11.51-17.14-17.34l2-1.95c.89.91,1.78,1.81,2.69,2.7,4.83,4.78,9.7,9.52,14.5,14.33A164.14,164.14,0,0,1,701.82,1235c12.43,16.87,16.64,35.78,14.19,56.39a224.41,224.41,0,0,1-5.11,27.33q-11.49,46.71-19.3,94.13l-2.79-.46q1.34-8.2,2.74-16.4c3.75-22,8.32-43.92,13.53-65.67,3-12.72,6.45-25.36,7.86-38.41,1-9.44,1.11-18.86-1-28.19-2.26-10.21-7-19.23-13.2-27.58A157.6,157.6,0,0,0,683.71,1219Z"
     id="path68"
     transform="translate(-28.34 -219.02)" />
  <path
     class="cls-5"
     d="M533.23,975.15c.46,1.2.83,2.44,1.24,3.66l-.66.47c-1.14-.94-2.33-1.83-3.41-2.83a105,105,0,0,1-32.76-59.94,90.44,90.44,0,0,1-1.42-25.23c.06-.58-.16-1.61-.49-1.73a4.93,4.93,0,0,0-2.28.09c-.3,0-.56.34-.83.54-.53.39-1.07.78-1.59,1.19-6.43,5-13.55,5.85-21.12,3.25-11.29-3.87-18-12-20.91-23.35A49.35,49.35,0,0,1,447.51,859a64.89,64.89,0,0,1,1-10.92c2.5-14.85,7.94-28.68,15-41.91a184.44,184.44,0,0,1,23.22-33.39A168.22,168.22,0,0,1,501,757.64a207.09,207.09,0,0,1,16.92-13.81c8.69-6.36,17.63-12.37,26.5-18.46,10-6.84,20.07-13.5,30-20.45a109.9,109.9,0,0,0,15.19-12.77c.57-.58,1.15-1.14,1.74-1.7a62.86,62.86,0,0,1,13.78-9.82c10-5.25,20.62-7,31.71-3.41,15.72,5,25.83,15.6,30.76,31.22a64.11,64.11,0,0,1,1.66,31c-.94,5.2-2.29,10.34-3.61,15.47a29.26,29.26,0,0,1-2.08,5c-2,4.33-4.39,8.52-5.81,13.15-.1.32-.21.63-.34.94a19.44,19.44,0,0,1-4,5.67l-.84.91a28.19,28.19,0,0,0-2.38,2.86,266,266,0,0,1-25.71,30.94c-15,15.73-30,31.36-45,47A351.69,351.69,0,0,0,555.11,889a159.51,159.51,0,0,0-14,21.09,92.68,92.68,0,0,0-11.24,34.75C528.73,955.13,529.52,965.32,533.23,975.15Z"
     id="path70"
     transform="translate(-28.34 -219.02)" />
  <path
     d="M807.94,804.54c.77-.48,1.61-1,2.44-1.52,24.15-15.39,50.41-20.6,78.56-16.56l-.39,2.82a119.07,119.07,0,0,0-34.42.28,103.74,103.74,0,0,0-40.65,15.1c-.78.49-1.49,1.09-2.15,1.57.18.5.19.71.3.8.89.74,1.76,1.49,2.69,2.16a91.91,91.91,0,0,1,20.56,20.73,123.13,123.13,0,0,1,14.84,27.46c1,2.6,2,5.21,2.94,7.86l-2.63.21a149,149,0,0,0-10.42-22.85A96.2,96.2,0,0,0,796,801.9c-6.58-3.11-13.25-6-20.42-7.59-4-.91-7.84-2.53-11.84-3.51-16.28-4-32.87-6.17-49.52-7.76-17.82-1.71-35.71-2.39-53.59-3.11-1.46-.06-2.93,0-4.35,0-.47.73-.95,1.44-1.43,2.16l-2.26-1.5.84-.91a19.44,19.44,0,0,0,4-5.67l2.27.44-.74,1.44c.48,1.18,1.24,1,1.83,1,13.74.67,27.49,1.15,41.21,2,22,1.4,43.89,3.81,65.29,9.48a26.25,26.25,0,0,0,3,.41c1.13-3.55,1.31-7,1.84-10.41a392.15,392.15,0,0,1,8-40.15l2.81.64a401.27,401.27,0,0,0-7.79,39.44c-.45,2.95-.85,5.91-1.2,8.86-.13,1.07-.83,2.61.73,3s1.57-1.41,2.19-2.29a15.57,15.57,0,0,0,.94-1.76,181.88,181.88,0,0,1,16.81-26.36q3.9-5.06,8-9.85l2.18,1.85a201.43,201.43,0,0,0-23.71,34.58c-.85,1.58-1.61,3.2-2.53,5,5.24,2.1,10.2,3.91,15,6.07S803,802.1,807.94,804.54Z"
     id="path72"
     transform="translate(-28.34 -219.02)" />
  <path
     class="cls-6"
     d="M652.2,1500.46c1.44.49,2.83.85,4.13,1.42,1.81.78,3.51,1.83,5.34,2.55,3.19,1.26,6.35,2.65,9.93,2.69a26.13,26.13,0,0,1,5,1.07c-.38,2.46-.73,4.79-1.1,7.2-5.93.76-11.74.51-17.32-2-1.35-.6-2.8-1-4.15-1.55-3.57-1.59-4.6-4.33-3.13-8C651.34,1502.86,651.71,1501.78,652.2,1500.46Z"
     id="path74"
     transform="translate(-28.34 -219.02)" />
  <path
     d="M661.49,1240.23c-4.82-6.72-9.81-13.31-14.9-19.82l2.14-1.67q8.31,10.66,16.5,21.42a139.3,139.3,0,0,1,13.59,21.94,36.17,36.17,0,0,1,3.29,22.71,129.53,129.53,0,0,1-2.77,13.12c-4.32,15.83-7.48,31.92-10.56,48q-6.27,32.7-10.31,65.76c-2,16-3.67,31.92-4.83,48-.49,6.78-1.11,13.54-1.53,20.32-.29,4.79-.33,9.59-.49,14.27l-2.75.08a158.42,158.42,0,0,1,.61-20.43c.91-9.56,1.45-19.16,2.37-28.73,1-10.88,2.16-21.76,3.53-32.6,1.59-12.48,3.39-24.94,5.29-37.38,3.58-23.42,8.24-46.64,13.54-69.72,1.67-7.26,3.34-14.53,4.8-21.83a30.83,30.83,0,0,0-3.47-21.14A200.31,200.31,0,0,0,661.49,1240.23Z"
     id="path76"
     transform="translate(-28.34 -219.02)" />
  <path
     d="M678.89,1515.1c.89,4,2.87,7.14,6.86,8.43a24.16,24.16,0,0,0,6.8,1.14q30.54.9,61.07,1.6a25.91,25.91,0,0,0,3.25-.33c.81-5.16.82-12.58,0-16.18-1.4.1-2.86.14-4.3.32a302.21,302.21,0,0,1-31.66,2.57c-10.59.21-21.18.1-31.78.06-2.62,0-5.26.13-7.84-.82-1.41-.52-2.49.62-2.46,2.23A5.27,5.27,0,0,0,678.89,1515.1Zm-28-11.19c-1.47,3.63-.44,6.37,3.13,8,1.35.6,2.8,1,4.15,1.55,5.58,2.48,11.39,2.73,17.32,2,.37-2.41.72-4.74,1.1-7.2a26.13,26.13,0,0,0-5-1.07c-3.58,0-6.74-1.43-9.93-2.69-1.83-.72-3.53-1.77-5.34-2.55-1.3-.57-2.69-.93-4.13-1.42C651.71,1501.78,651.34,1502.86,650.91,1503.91Zm2.89,11c-5.3-2.1-7-5.24-6.09-10.92.17-1,.56-1.91.73-2.89a21,21,0,0,0,.52-4.37c0-.8-.07-1.61-.09-2.41l2.75-.08c7,7,15.46,9.72,25.16,10.6.29-1.41.52-2.2.6-3,.75-7.42,1.37-14.85,2.22-22.26,1.37-12,2.66-24,4.39-36q2.26-15.61,4.82-31.19l2.79.46q-2.58,15.81-4.72,31.7c-2.72,20.18-4.7,40.47-7,60.71a17.44,17.44,0,0,0,.13,3.12c4.48,1.46,8.79,1.45,13.08,1.45,10.11,0,20.22.11,30.32-.25a309.09,309.09,0,0,0,34.24-3.19c.12-2.09.24-3.89.32-5.69.51-12.25.73-24.52,1.58-36.75,1.26-18.18,2.81-36.34,4.52-54.48,1.2-12.69,2.6-25.38,4.4-38q2.57-18,5.47-35.86l2.77.45q-2,12.69-3.82,25.43c-2.77,19.85-5.16,39.75-7,59.71-1.68,18.31-3.2,36.64-3.9,55-.62,16.06-1.11,32.13-1.66,48.19-.05,1.31-.16,2.62-.25,4.17a27,27,0,0,1-2.77.77,9.37,9.37,0,0,1-2,0q-26.34-.69-52.68-1.36c-3.81-.1-7.62-.09-11.43-.25a30.56,30.56,0,0,1-5.4-.68,10.68,10.68,0,0,1-7.7-5.73c-.3-.58-.64-1.13-1.06-1.88-3.72-.57-7.47-1.09-11.21-1.73-2.93-.51-5.84-1.14-8.75-1.78A21.2,21.2,0,0,1,653.8,1514.91Z"
     id="path78"
     transform="translate(-28.34 -219.02)" />
  <path
     d="M600.91,1048c-.19-4.84-.13-9.69-.06-14.55l2.8,0a229.11,229.11,0,0,0,8.45,66.92c10.6,37.84,29,71.19,56.48,99.27l-2,1.95q-1.91-1.95-3.79-3.92a209.53,209.53,0,0,1-33.35-46.21C612.07,1119.16,602.34,1084.7,600.91,1048Z"
     id="path80"
     transform="translate(-28.34 -219.02)" />
  <path
     class="cls-7"
     d="M597.74,1022.61c.87-.4,1.78-.68,3.11-1.19,0,1.87.07,3.29.07,4.71,0,2.44,0,4.87-.07,7.31-.07,4.86-.13,9.71.06,14.55,1.43,36.71,11.16,71.17,28.52,103.5a209.53,209.53,0,0,0,33.35,46.21q1.89,2,3.79,3.92c5.67,5.83,11.42,11.57,17.14,17.34a157.6,157.6,0,0,1,15.07,17.17c6.16,8.35,10.94,17.37,13.2,27.58,2.07,9.33,2,18.75,1,28.19-1.41,13-4.82,25.69-7.86,38.41-5.21,21.75-9.78,43.63-13.53,65.67q-1.39,8.19-2.74,16.4-2.55,15.58-4.82,31.19c-1.73,12-3,24-4.39,36-.85,7.41-1.47,14.84-2.22,22.26-.08.81-.31,1.6-.6,3-9.7-.88-18.11-3.63-25.16-10.6.16-4.68.2-9.48.49-14.27.42-6.78,1-13.54,1.53-20.32,1.16-16,2.88-32,4.83-48q4-33.06,10.31-65.76c3.08-16.09,6.24-32.18,10.56-48a129.53,129.53,0,0,0,2.77-13.12,36.17,36.17,0,0,0-3.29-22.71,139.3,139.3,0,0,0-13.59-21.94q-8.21-10.74-16.5-21.42-7.1-9.15-14.31-18.21c-11.46-14.39-23.3-28.47-34.74-42.87a354.3,354.3,0,0,1-33-49c-9.65-17.49-17.3-35.76-21.67-55.32-.68-3-1.24-6.13-1.89-9.4a20.1,20.1,0,0,1,2.78-1.4A398,398,0,0,0,597.74,1022.61Z"
     id="path82"
     transform="translate(-28.34 -219.02)" />
  <path
     d="M589.75,688.37a144.59,144.59,0,0,0,12.46-13.58c8.59-10.68,15.42-22.34,19.27-35.6a72,72,0,0,0,1.87-8.08l2.63.44c-2.47,14.75-8.79,27.87-17.41,40-1.32,1.87-2.69,3.7-4.29,5.89a6.31,6.31,0,0,0,1.82-.2c10.87-5.91,22.18-6.2,33.63-2.27,16.11,5.53,26.1,17,30.92,33.12,3.15,10.52,3.25,21.24,1.58,32a95.54,95.54,0,0,1-11.17,31.7c-.49.88-.95,1.78-1.38,2.62l-2.27-.44c.13-.31.24-.62.34-.94,1.42-4.63,3.76-8.82,5.81-13.15a29.26,29.26,0,0,0,2.08-5c1.32-5.13,2.67-10.27,3.61-15.47a64.11,64.11,0,0,0-1.66-31c-4.93-15.62-15-26.18-30.76-31.22-11.09-3.55-21.69-1.84-31.71,3.41a62.86,62.86,0,0,0-13.78,9.82Z"
     id="path84"
     transform="translate(-28.34 -219.02)" />
  <path
     class="cls-2"
     d="M372.06,706.92a80.07,80.07,0,0,1-10.71-18.2,90.13,90.13,0,0,1-6-20.44c-1.2-6.87-1-13.8-1-21-1.9-.21-3.5-.39-5.11-.55a9,9,0,0,1-1.41-.25,10,10,0,0,1-5-3.14,23,23,0,0,1-5.3-11.58,44.24,44.24,0,0,1,.54-17.27,86.08,86.08,0,0,1,10-25.29c7.13-12.51,16.48-23.19,27-32.87,12-11,25.23-20.35,38.59-29.56,10.35-7.13,20.76-14.18,30.72-21.86,1.59-1.23,3.16-2.46,4.72-3.72a175,175,0,0,0,26-25.21,119.62,119.62,0,0,0,20.4-36.16c.44-1.24.91-2.47,1.39-3.78a26.35,26.35,0,0,1,15.55-1.84,43,43,0,0,1,7.47,1.86,41.09,41.09,0,0,1,7,3.21,110.59,110.59,0,0,1,11.23,7.29,200.78,200.78,0,0,1,24.39,21.87,72.52,72.52,0,0,1,10.23,13.41,47.48,47.48,0,0,1,5.44,13.79c1.81,8.23.53,16.15-2.35,23.89A69.38,69.38,0,0,1,566.81,536a124.71,124.71,0,0,1-17.43,19.66C544.46,560.11,540,565,535,569.38c-13.94,12.27-29.05,23-44.34,33.56-15.83,10.89-31.78,21.6-47.45,32.71-9,6.41-17.66,13.42-26.44,20.2a166.07,166.07,0,0,0-15.23,13.56c-3.41,3.36-6.75,6.81-10.09,10.25a107.46,107.46,0,0,0-17.16,23.67C373.68,704.46,372.94,705.51,372.06,706.92Z"
     id="path86"
     transform="translate(-28.34 -219.02)" />
  <path
     class="cls-1"
     d="M412.29,779.81a27.34,27.34,0,0,1-20.7-2.52c-13.17-7-20.91-18-23.23-32.75-1.56-9.92.2-19.46,3.69-28.75a87.83,87.83,0,0,1,13.76-24.07c5.28-6.58,10.86-13,16.58-19.16.36-.39.73-.78,1.12-1.15,2.66-2.63,5.72-4.91,8.54-7.4,15.55-13.76,32.32-25.9,49.43-37.59,13.27-9.06,26.59-18,39.79-27.22a398.87,398.87,0,0,0,49.08-39.59,9,9,0,0,1,6.22-2.5,60.6,60.6,0,0,1,35.56,9.06c17,10.39,28,25.1,31.34,45a59.9,59.9,0,0,1-.12,20,72,72,0,0,1-1.87,8.08c-3.85,13.26-10.68,24.92-19.27,35.6a142.08,142.08,0,0,1-23.32,23c-9.68,7.55-19.75,14.52-30,21.32C543,723,537,726.91,531.16,730.93A270.47,270.47,0,0,0,498,757a201.87,201.87,0,0,0-28.73,33.49,151.85,151.85,0,0,0-18.71,37.17c-.32.94-.71,1.85-1.32,3.45-1.06-.8-1.73-1.22-2.3-1.76A92.3,92.3,0,0,1,421,786.52c-.1-.36-.19-.72-.28-1.09a27.49,27.49,0,0,0-.95-3.21c-1-2.48-2.91-3.42-5.59-2.93C413.56,779.41,412.93,779.64,412.29,779.81Z"
     id="path90"
     transform="translate(-28.34 -219.02)" />
  <path
     d="M536.38,985.25a106.1,106.1,0,0,1-32.71-40,110.77,110.77,0,0,1-10.78-46.59c0-1.27-.15-2.53-.26-4.24-1.52.76-2.66,1.35-3.82,1.91a23.08,23.08,0,0,1-13.49,2.46c-12.44-1.72-21.46-8.21-26.72-19.69a44.1,44.1,0,0,1-3.74-16.37c-.06-1.24-.09-2.48-.1-3.71l2.75,0A49.35,49.35,0,0,0,449,871.27c2.91,11.39,9.62,19.48,20.91,23.35,7.57,2.6,14.69,1.79,21.12-3.25.52-.41,1.06-.8,1.59-1.19.27-.2.53-.5.83-.54a4.93,4.93,0,0,1,2.28-.09c.33.12.55,1.15.49,1.73a90.44,90.44,0,0,0,1.42,25.23,105,105,0,0,0,32.76,59.94c1.08,1,2.27,1.89,3.41,2.83l.66-.47c-.41-1.22-.78-2.46-1.24-3.66-3.71-9.83-4.5-20-3.38-30.35a92.68,92.68,0,0,1,11.24-34.75,159.51,159.51,0,0,1,14-21.09,351.69,351.69,0,0,1,24.35-27.55c15-15.66,30.1-31.29,45-47a266,266,0,0,0,25.71-30.94,28.19,28.19,0,0,1,2.38-2.86l2.26,1.5c-9.06,13.42-19.78,25.13-30.72,36.68-7.4,7.82-14.83,15.62-22.18,23.49-12.22,13.09-24.44,26.16-36.52,39.37a159.14,159.14,0,0,0-18.31,24.11,99.73,99.73,0,0,0-13,31.56c-3.56,16.68-2.13,32.6,7.1,47.37a15.42,15.42,0,0,1,1,2.6c-1.12.09-2,.43-2.58.16A19.7,19.7,0,0,1,536.38,985.25Z"
     id="path92"
     transform="translate(-28.34 -219.02)" />
  <path
     d="M490.66,602.94c15.29-10.51,30.4-21.29,44.34-33.56,5-4.37,9.46-9.27,14.38-13.69A124.71,124.71,0,0,0,566.81,536a69.38,69.38,0,0,0,9.07-16.49c2.88-7.74,4.16-15.66,2.35-23.89a47.48,47.48,0,0,0-5.44-13.79,72.52,72.52,0,0,0-10.23-13.41,200.78,200.78,0,0,0-24.39-21.87,110.59,110.59,0,0,0-11.23-7.29,41.09,41.09,0,0,0-7-3.21l.93-2.75a55.39,55.39,0,0,1,12.62,6.37,169.93,169.93,0,0,1,34.33,30A68.07,68.07,0,0,1,577,483.29a44.07,44.07,0,0,1,2.63,35.17A64.52,64.52,0,0,1,571,535.72c-3.46,4.85-7.3,9.42-11,14.1-.92,1.15-1.94,2.23-2.86,3.28.58,1.48,1.75,1,2.61,1,23.22-.41,47.44,13.8,59.45,35.5a62.18,62.18,0,0,1,7.16,39.85c-.1.72-.21,1.43-.33,2.14l-2.63-.44a59.9,59.9,0,0,0,.12-20c-3.33-19.89-14.37-34.6-31.34-45a60.6,60.6,0,0,0-35.56-9.06,9,9,0,0,0-6.22,2.5,398.87,398.87,0,0,1-49.08,39.59c-13.2,9.17-26.52,18.16-39.79,27.22-17.11,11.69-33.88,23.83-49.43,37.59-2.82,2.49-5.88,4.77-8.54,7.4l-2-2a166.07,166.07,0,0,1,15.23-13.56c8.78-6.78,17.4-13.79,26.44-20.2C458.88,624.54,474.83,613.83,490.66,602.94Z"
     id="path94"
     transform="translate(-28.34 -219.02)" />
  <path
     d="M536.62,1045.31a411.14,411.14,0,0,1-42.63,9.51q-19.12,3.17-38.47,4.56c-9.22.67-18.44.9-27.66.92v-2.89a394.08,394.08,0,0,0,70.45-6.35,399.76,399.76,0,0,0,99.52-31.78,31.53,31.53,0,0,1,3.61-1.64,7.14,7.14,0,0,1,2.26,0,3.89,3.89,0,0,1,.43,1.1c-.07,3-.13,6-.27,8.94-.09,1.95-.15,3.9-.2,5.85l-2.8,0c0-2.44.07-4.87.07-7.31,0-1.42,0-2.84-.07-4.71-1.33.51-2.24.79-3.11,1.19a398,398,0,0,1-51.86,19.94,20.1,20.1,0,0,0-2.78,1.4c.65,3.27,1.21,6.35,1.89,9.4,4.37,19.56,12,37.83,21.67,55.32a354.3,354.3,0,0,0,33,49c11.44,14.4,23.28,28.48,34.74,42.87q7.22,9.06,14.31,18.21l-2.14,1.67c-6.55-8.36-13.27-16.59-20-24.81-13-15.9-26.17-31.69-38.35-48.26-11.49-15.64-22-31.87-30.6-49.35a198.48,198.48,0,0,1-16.94-50.21c-.18-1-.38-1.92-.63-3.16C538.78,1044.87,537.68,1045,536.62,1045.31Z"
     id="path96"
     transform="translate(-28.34 -219.02)" />
  <path
     d="M498,757a270.47,270.47,0,0,1,33.18-26.07c5.88-4,11.85-7.9,17.77-11.85,10.21-6.8,20.28-13.77,30-21.32a143.35,143.35,0,0,0,10.86-9.39l1.59,2.08c-.59.56-1.17,1.12-1.74,1.7a109.9,109.9,0,0,1-15.19,12.77c-9.9,7-20,13.61-30,20.45-8.87,6.09-17.81,12.1-26.5,18.46A207.09,207.09,0,0,0,501,757.64a168.22,168.22,0,0,0-14.33,15.14,184.44,184.44,0,0,0-23.22,33.39c-7.05,13.23-12.49,27.06-15,41.91a64.89,64.89,0,0,0-1,10.92l-2.75,0a76.08,76.08,0,0,1,2.64-20.41,5.74,5.74,0,0,0-1.86-6.54A100.1,100.1,0,0,1,436,822c-8.64-10.7-15.07-22.54-18-36.13l2.71-.41c.09.37.18.73.28,1.09a92.3,92.3,0,0,0,25.9,42.83c.57.54,1.24,1,2.3,1.76.61-1.6,1-2.51,1.32-3.45a151.85,151.85,0,0,1,18.71-37.17A201.87,201.87,0,0,1,498,757Z"
     id="path98"
     transform="translate(-28.34 -219.02)" />
  <path
     class="cls-4"
     d="M345.22,291.52A169.34,169.34,0,0,1,373,289.71c26.86.71,52.07,7.21,74.79,21.94,18.8,12.18,33.24,28.26,42.37,48.84A102.45,102.45,0,0,1,498,415.84c-3.09,24.64-13.55,45.84-30.11,64.15a180.42,180.42,0,0,1-25.11,22.74q-1.93,1.45-3.9,2.88c-9.25,6.69-18.68,13.16-28.07,19.67-9.66,6.7-19.32,13.4-28.44,20.85-.62.5-1.33.9-2.68,1.82-.39-4-.74-7.3-1-10.58-.78-8.9-1.41-17.83-2.31-26.72-2.47-24.42-6.19-48.61-13.89-72A184.07,184.07,0,0,0,342,395.18C332.7,381,321.3,368.9,307.1,359.57a100.22,100.22,0,0,0-48.37-16.41c-.66-.05-1.36,0-2.05-.05a3.16,3.16,0,0,1-2.23-1,21.41,21.41,0,0,1,3.73-5.73c10.77-13.43,24.16-23.49,39.61-30.91A158.53,158.53,0,0,1,345.22,291.52Z"
     id="path100"
     transform="translate(-28.34 -219.02)" />
  <path
     d="M370.78,1506.55c-.42-13.46-.9-26.91-.9-40.37,0-27.33.67-54.67,2.24-82q2-35.48,4.05-71c1.2-20.7,2.58-41.38,3.66-62.09l2.89.15q-1.26,23.45-2.59,46.9-2,34-4.05,68Q373,1417.07,372.92,1468q0,19.21.62,38.43Z"
     id="path102"
     transform="translate(-28.34 -219.02)" />
  <path
     class="cls-6"
     d="M372.28,1538.91c-15,1.94-57.44-4.64-74.13-12.08.3-2.5.38-5.06.79-7.69a23.55,23.55,0,0,1,1.15-4.61c22.48,11.24,46,15.7,70.83,12.59a7.72,7.72,0,0,1,.57,1.61C371.77,1532,372,1535.31,372.28,1538.91Z"
     id="path104"
     transform="translate(-28.34 -219.02)" />
  <path
     d="M301.16,1511.51a116.82,116.82,0,0,0,66.8,13,18.58,18.58,0,0,0,3.16-.89c0-1.94,0-3.59,0-5.23q-.15-5.89-.34-11.8l2.76-.08q.39,11.34,1,22.68c.18,3.21.51,6.41.67,9.62l-3,.14c-.28-3.6-.51-6.89-.79-10.18a7.72,7.72,0,0,0-.57-1.61c-24.82,3.11-48.35-1.35-70.83-12.59a23.55,23.55,0,0,0-1.15,4.61l-2.85-.47a24.78,24.78,0,0,0,.29-6.83,2.42,2.42,0,0,1,.09-1,67.86,67.86,0,0,0,2.11-11.71l2.78.31c-.31,2.82-.62,5.63-.92,8.45-.11,1-.13,1.92-.18,2.75A5.87,5.87,0,0,0,301.16,1511.51Z"
     id="path106"
     transform="translate(-28.34 -219.02)" />
  <path
     d="M350.93,650c-1.24-.32-2.42-.71-3.62-.94l.56-2.55a9,9,0,0,0,1.41.25c1.61.16,3.21.34,5.11.55,0,7.18-.21,14.11,1,21a90.13,90.13,0,0,0,6,20.44,80.07,80.07,0,0,0,10.71,18.2c.88-1.41,1.62-2.46,2.23-3.59a107.46,107.46,0,0,1,17.16-23.67c3.34-3.44,6.68-6.89,10.09-10.25l2,2c-.39.37-.76.76-1.12,1.15-5.72,6.21-11.3,12.58-16.58,19.16a87.83,87.83,0,0,0-13.76,24.07c-3.49,9.29-5.25,18.83-3.69,28.75,2.32,14.73,10.06,25.74,23.23,32.75a27.34,27.34,0,0,0,20.7,2.52c.64-.17,1.27-.4,1.91-.52,2.68-.49,4.58.45,5.59,2.93a27.49,27.49,0,0,1,.95,3.21l-2.71.41c-.56-2.63-1.54-3.32-4.17-3.13a11.85,11.85,0,0,0-2,.27c-8.94,2.14-17.12,0-24.71-4.65a45.69,45.69,0,0,1-19.87-25.23c-3.48-10.4-3.2-20.87-.38-31.33a76,76,0,0,1,2.77-8.5,5,5,0,0,0-.32-4.72c-.58-1-1.26-1.94-1.89-2.9-1.55-2.35-3.25-4.61-4.63-7.06a87.73,87.73,0,0,1-11.55-42.7C351.3,653.93,351.68,651.92,350.93,650Z"
     id="path108"
     transform="translate(-28.34 -219.02)" />
  <path
     d="M312.53,1040.41a394.44,394.44,0,0,0,100.66,16.73q7.33.27,14.66.27v2.89c-2.54,0-5.07,0-7.61,0-10.28-.07-20.53-.77-30.76-1.77a28.52,28.52,0,0,0-7.15-.2c0,1.3-.14,2.42-.06,3.52.37,5.45.76,10.91,1.21,16.36,1.66,20.33,2.14,40.7,2.44,61.08.35,23.7-.28,47.39-1.24,71.07-.35,8.44-.68,16.89-1.13,25.33l-.84,15.64-2.89-.15c.08-1.46.16-2.93.23-4.39,1.18-23.33,2.12-46.66,2.59-70q.9-44.74-1.49-89.42c-.48-8.93-1.31-17.84-2-26.76a29.33,29.33,0,0,0-.54-2.93c-.77-.17-1.4-.34-2-.45-8-1.3-16-2.42-24-3.93a342.72,342.72,0,0,1-44.78-11.38l.89-2.69C310,1039.61,311.24,1040,312.53,1040.41Z"
     id="path110"
     transform="translate(-28.34 -219.02)" />
  <path
     class="cls-6"
     d="M308,1371.49a5.06,5.06,0,0,1-3-1.41,23.3,23.3,0,0,1-1.88-2.33c.62-.91,1.26-1.83,1.94-2.81l2.19-3.19a7.12,7.12,0,0,1,.82,2C308.1,1366.17,308,1368.63,308,1371.49Z"
     id="path112"
     transform="translate(-28.34 -219.02)" />
  <path
     d="M288.68,1156.48q8.43,36,13.88,72.59,4.29,29,6.49,58.25c1.48,19.34,2.18,38.71,2.35,58.09.16,18.72-.29,37.44-1.46,56.13-1,16.53-2,33.08-3.46,49.57-1.46,16.15-3.34,32.25-5.12,48.37l-2.78-.31c.43-4,.7-7.91,1.18-11.85,1.39-11.51,2.49-23.06,3.6-34.6.82-8.57,1.62-17.16,2.13-25.76.9-15.21,1.57-30.44,2.32-45.67.08-1.64,0-3.29,0-5.06-1.68-1.35-3.32-2.75-5-4.12l2.16-2a5.06,5.06,0,0,0,3,1.41c0-2.86.13-5.32.1-7.78a7.12,7.12,0,0,0-.82-2l-2.19,3.19-2.68-1.25c1.23-1.65,2.19-3.45,3.3-5.16a16,16,0,0,0,2.59-9.39c-.3-17.39-.69-34.78-1.67-52.15a10.13,10.13,0,0,0-3.82-7.58c-4-3.54-8-7.07-12-10.63l1.87-2.09q5.14,4.61,10.4,9.08c.67.57,1.26,1.69,2.7.73a845.56,845.56,0,0,0-20-129.34Z"
     id="path114"
     transform="translate(-28.34 -219.02)" />
  <path
     d="M298.15,1526.83c16.69,7.44,59.1,14,74.13,12.08l3-.14c0,.26,0,.53,0,.8.11,2.46-.74,3.22-3.22,3.28-.33,0-.67,0-1,0-24.43-1-48.47-4.32-71.79-12-1.1-.36-2.18-.76-3.26-1.19a6.15,6.15,0,0,1-1.06-.86c.09-1.22.17-2.67.29-4.13.16-2,.55-4,.85-6l2.85.47C298.53,1521.77,298.45,1524.33,298.15,1526.83Z"
     id="path116"
     transform="translate(-28.34 -219.02)" />
  <path
     class="cls-3"
     d="M264.76,1083.56c3.57,7,14.83,47,21,73.6a845.56,845.56,0,0,1,20,129.34c-1.44,1-2-.16-2.7-.73q-5.25-4.49-10.4-9.08-14.52-12.92-28.2-26.77-40.09-40.76-79.92-81.77c-.68-.7-1.29-1.45-2.15-2.43C210.43,1139,237.72,1111.77,264.76,1083.56Z"
     id="path118"
     transform="translate(-28.34 -219.02)" />
  <path
     d="M264.45,1249.92q13.64,13.88,28.2,26.77l-1.87,2.09c-6.65-5.93-13.23-11.92-19.62-18.11-30.34-29.41-59.3-60.17-88.78-90.43l2.15-2.09Q224.48,1209.06,264.45,1249.92Z"
     id="path120"
     transform="translate(-28.34 -219.02)" />
  <path
     d="M375.13,556.35c-10.56,9.68-19.91,20.36-27,32.87a86.08,86.08,0,0,0-10,25.29,44.24,44.24,0,0,0-.54,17.27,23,23,0,0,0,5.3,11.58,10,10,0,0,0,5,3.14l-.56,2.55-.26-.06c-3.7-.64-6.24-2.91-8.32-5.81a25,25,0,0,1-4.22-11c-1.11-7.35-.19-14.55,1.6-21.66,3.15-12.56,9.15-23.75,16.77-34.12a156.28,156.28,0,0,1,19.66-21.71c1.32-1.24,2.66-2.46,4.06-3.76-.08-1.75-.11-3.41-.24-5-1.3-17-2.62-34-4.83-51a323.42,323.42,0,0,0-9.13-46.26c-5.46-19.24-13.22-37.46-24.49-54.08a117.32,117.32,0,0,0-29.64-30.47,99.31,99.31,0,0,0-51.75-18.16l.16-2.82c.69.07,1.39,0,2.05.05a100.22,100.22,0,0,1,48.37,16.41C321.3,368.9,332.7,381,342,395.18a184.07,184.07,0,0,1,20.5,43.44c7.7,23.42,11.42,47.61,13.89,72,.9,8.89,1.53,17.82,2.31,26.72.28,3.28.63,6.54,1,10.58,1.35-.92,2.06-1.32,2.68-1.82,9.12-7.45,18.78-14.15,28.44-20.85,9.39-6.51,18.82-13,28.07-19.67q2-1.42,3.9-2.88l1.68,2.2c-10,7.68-20.37,14.73-30.72,21.86C400.36,536,387.11,545.35,375.13,556.35Z"
     id="path124"
     transform="translate(-28.34 -219.02)" />
  <path
     d="M373,289.71a169.34,169.34,0,0,0-27.73,1.81,158.53,158.53,0,0,0-47.43,13.94c-15.45,7.42-28.84,17.48-39.61,30.91a21.41,21.41,0,0,0-3.73,5.73,3.16,3.16,0,0,0,2.23,1l-.16,2.82c-1.83-.12-3.68-.19-5.54-.22l-4.92-.08,0-2.86,1.11,0c1-.06,1.94-.22,2.85-.32,2.07-2.8,4-5.49,6-8.11a5.14,5.14,0,0,0,1.05-3.71c-.14-2-.14-4-.35-6-1.15-11-2.22-22.08-3.56-33.1-1.25-10.29-2.89-20.5-4.81-30.67l2.92-.55q.9,4.69,1.71,9.42c2.44,14.2,4.25,28.5,5.72,42.84.52,5.1.87,10.21,1.34,15.81a11.46,11.46,0,0,0,2.24-1.35c19.34-19.75,43.33-30.6,69.92-36.37a172.63,172.63,0,0,1,42.46-3.93c28.27.95,54.55,8.36,78,24.59a114.77,114.77,0,0,1,35.15,38c13.78,24.27,17.07,50.17,11.45,77.35-.27,1.29-.56,2.58-.79,3.89,0,.26.17.58.35,1.15a16.57,16.57,0,0,0,2.28-.22c5.65-1.32,11.19-.69,16.69.85,1,.29,2.06.61,3.06,1l-.93,2.75a43,43,0,0,0-7.47-1.86,26.35,26.35,0,0,0-15.55,1.84c-.48,1.31-.95,2.54-1.39,3.78A119.62,119.62,0,0,1,475.15,476a175,175,0,0,1-26,25.21c-1.56,1.26-3.13,2.49-4.72,3.72l-1.68-2.2A180.42,180.42,0,0,0,467.87,480c16.56-18.31,27-39.51,30.11-64.15a102.45,102.45,0,0,0-7.87-55.35c-9.13-20.58-23.57-36.66-42.37-48.84C425,296.92,399.81,290.42,373,289.71Z"
     id="path126"
     transform="translate(-28.34 -219.02)" />
  <path
     class="cls-8"
     d="M371.12,1518.35c0,1.64,0,3.29,0,5.23a18.58,18.58,0,0,1-3.16.89,116.82,116.82,0,0,1-66.8-13,5.87,5.87,0,0,1-.9-.83c.05-.83.07-1.8.18-2.75.3-2.82.61-5.63.92-8.45,1.78-16.12,3.66-32.22,5.12-48.37,1.49-16.49,2.43-33,3.46-49.57,1.17-18.69,1.62-37.41,1.46-56.13-.17-19.38-.87-38.75-2.35-58.09q-2.24-29.25-6.49-58.25-5.42-36.6-13.88-72.59-3.37-14.54-7.25-29a1059.92,1059.92,0,0,0-43.75-128.76c-.65-1.59-1.78-3.1-1.49-5a8.1,8.1,0,0,1,1.78,1.37c16.22,21.18,37.57,35.13,62.38,44.17,2.47.9,4.95,1.77,7.44,2.59a342.72,342.72,0,0,0,44.78,11.38c8,1.51,16,2.63,24,3.93.64.11,1.27.28,2,.45a29.33,29.33,0,0,1,.54,2.93c.69,8.92,1.52,17.83,2,26.76q2.41,44.68,1.49,89.42c-.47,23.37-1.41,46.7-2.59,70-.07,1.46-.15,2.93-.23,4.39-1.08,20.71-2.46,41.39-3.66,62.09q-2.06,35.48-4.05,71c-1.57,27.3-2.25,54.64-2.24,82,0,13.46.48,26.91.9,40.37Q371,1512.45,371.12,1518.35Z"
     id="path128"
     transform="translate(-28.34 -219.02)" />
  <path
     class="cls-3"
     d="M236.21,993.59l-.1.1,0-.16Z"
     id="path130"
     transform="translate(-28.34 -219.02)" />
  <path
     class="cls-3"
     d="M236.21,993.59a.88.88,0,0,0,0,.16l-.08-.06Z"
     id="path132"
     transform="translate(-28.34 -219.02)" />
  <path
     class="cls-3"
     d="M236.08,993.53l-.56-.26.42-.37C236,993.11,236,993.32,236.08,993.53Z"
     id="path134"
     transform="translate(-28.34 -219.02)" />
  <path
     class="cls-5"
     d="M232.92,295.63a9.19,9.19,0,0,1,1.36,1.88A90.76,90.76,0,0,1,240,321.06c.57,5.42.65,10.9.81,16.35a41.51,41.51,0,0,1-.5,5.45l-16.72,2.37a15.11,15.11,0,0,1-.42-2.85,149.49,149.49,0,0,1,9-45.58A8.88,8.88,0,0,1,232.92,295.63Z"
     id="path136"
     transform="translate(-28.34 -219.02)" />
  <path
     class="cls-3"
     d="M229,984c.27-.08.56-.21.68-.11a9,9,0,0,1,3,4.89,5.61,5.61,0,0,1-2.48-2.31c-.25-.43-.45-.87-.65-1.29a9.73,9.73,0,0,0-.6-1.16Z"
     id="path138"
     transform="translate(-28.34 -219.02)" />
  <path
     class="cls-3"
     d="M229,982.19a1.77,1.77,0,0,1-.11,1.76,3.32,3.32,0,0,1-.45-1.08,2.2,2.2,0,0,1,0-1.11,2.48,2.48,0,0,1,.24-.53A7,7,0,0,0,229,982.19Z"
     id="path140"
     transform="translate(-28.34 -219.02)" />
  <path
     class="cls-3"
     d="M228.9,984h0Z"
     id="path142"
     transform="translate(-28.34 -219.02)" />
  <path
     class="cls-3"
     d="M228.88,984l0,0h0l0,0Z"
     id="path144"
     transform="translate(-28.34 -219.02)" />
  <path
     class="cls-3"
     d="M228.87,984v0h0Z"
     id="path146"
     transform="translate(-28.34 -219.02)" />
  <path
     class="cls-3"
     d="M228.88,984l-.07,0h0l0,0Z"
     id="path148"
     transform="translate(-28.34 -219.02)" />
  <path
     class="cls-3"
     d="M228.86,984h0Z"
     id="path150"
     transform="translate(-28.34 -219.02)" />
  <path
     class="cls-3"
     d="M228.86,984l0,0,0,0Z"
     id="path152"
     transform="translate(-28.34 -219.02)" />
  <path
     class="cls-3"
     d="M228.85,984h0l0,0h0Z"
     id="path154"
     transform="translate(-28.34 -219.02)" />
  <path
     class="cls-3"
     d="M228.79,984.05h0l.07,0h0l-.1,0Z"
     id="path156"
     transform="translate(-28.34 -219.02)" />
  <path
     class="cls-3"
     d="M228.42,981.09h.34l0,0,0,0-.23,0Z"
     id="path158"
     transform="translate(-28.34 -219.02)" />
  <path
     class="cls-3"
     d="M228.74,981.11a.67.67,0,0,0-.06.12v0a.3.3,0,0,1,0-.08Z"
     id="path160"
     transform="translate(-28.34 -219.02)" />
  <path
     class="cls-3"
     d="M228.72,981.13a.3.3,0,0,0,0,.08,0,0,0,0,1,0,0Z"
     id="path162"
     transform="translate(-28.34 -219.02)" />
  <path
     class="cls-3"
     d="M228.72,981.13l-.05,0-.18-.07Z"
     id="path164"
     transform="translate(-28.34 -219.02)" />
  <path
     class="cls-3"
     d="M228.42,981.09h-.75c.07-.06.15-.18.2-.17A5.05,5.05,0,0,1,228.42,981.09Z"
     id="path166"
     transform="translate(-28.34 -219.02)" />
  <path
     d="M240,321.06a90.76,90.76,0,0,0-5.76-23.55,9.19,9.19,0,0,0-1.36-1.88,8.88,8.88,0,0,0-.72,1.17,149.49,149.49,0,0,0-9,45.58,15.11,15.11,0,0,0,.42,2.85l16.72-2.37a41.51,41.51,0,0,0,.5-5.45C240.69,332,240.61,326.48,240,321.06Zm-9.23-29.22c.47-1.17.68-2.64,2.52-2.81,1.73.89,2,2.85,2.64,4.45a109.86,109.86,0,0,1,7.92,44.69c0,1.42-.68,2.95.57,4.58l1.62,0,0,2.86a55.56,55.56,0,0,0-15.33,1.49,86.18,86.18,0,0,1-9.25,1.51c-1.46-2.52-1.32-5-1.24-7.46a154.94,154.94,0,0,1,10.57-49.33Z"
     id="path168"
     transform="translate(-28.34 -219.02)" />
  <path
     class="cls-7"
     d="M231,993.54c2.67,3.09,4.09,6.74,5.59,10.41q14.23,35,26,70.84c.52,1.56.95,3.14,1.47,4.85-.79.92-1.5,1.82-2.29,2.64q-36.76,38.45-75.18,75.23a20,20,0,0,1-2.61,2.28c-3.19,2.14-3.21,2.11-5.59,5.67a14.89,14.89,0,0,0,1.57,2.27c.81.84,1.63,1.67,2.43,2.51,29.48,30.26,58.44,61,88.78,90.43,6.39,6.19,13,12.18,19.62,18.11,4,3.56,8,7.09,12,10.63a10.13,10.13,0,0,1,3.82,7.58c1,17.37,1.37,34.76,1.67,52.15a16,16,0,0,1-2.59,9.39c-1.11,1.71-2.07,3.51-3.3,5.16a15.45,15.45,0,0,1-1.88,2.1c-2-.48-3.28-1.78-4.71-2.83a367.6,367.6,0,0,1-29.46-24.4c-9.22-8.33-18.39-16.71-27.63-25A330.07,330.07,0,0,0,197.24,1282c-13.77-8.91-27.59-17.73-41.31-26.7a266.83,266.83,0,0,1-29-21.76c-12-10.39-22.52-22-30.34-35.87-2.26-4-4.25-8.24-6.13-12.47-.38-.87-.72-1.73-1-2.59a23.6,23.6,0,0,1,2.35-20.27c3.39-5.69,6.86-11.34,10.63-16.78,9.44-13.63,20-26.4,30.53-39.19,14.32-17.4,28.86-34.62,43-52.14a376.68,376.68,0,0,0,35.52-51.48c2.17-3.85,4.21-7.77,6.23-11.7,1.16-2.25,2.32-4.51,3.5-6.75.59-1.13,1.21-2.23,2.21-4,1.58,3,2.68,5.26,3.89,7.42A34.75,34.75,0,0,0,231,993.54Z"
     id="path170"
     transform="translate(-28.34 -219.02)" />
  <path
     d="M231.81,638.94c.93-10.72,1.6-21.48,2.2-32.23q.83-14.88,1.26-29.79c0-.81,0-1.61,0-2.42l2.72,0c0,.62,0,1.24,0,1.86-.26,11.93-.82,23.84-1.32,35.76-.19,4.64-.43,9.28-.85,13.89-1.47,15.84-2.82,31.68-4.6,47.48-1.5,13.33-3.17,26.66-5.39,39.88-3.73,22.21-7.95,44.33-11.95,66.49-3.88,21.53-7.28,43.11-8.85,65a311.87,311.87,0,0,0,.11,51.14q.43,4.69,1.05,9.38c.42,3.28.87,6.57,1.43,9.83.54,3.1,1.16,6.19,1.86,9.25.73,3.23,1.56,6.44,2.42,9.64.82,3,1.64,6.08,2.66,9s1.8,6.59,3.73,9.1c2.12,2.76,1.19,6.16,3,8.77a5.26,5.26,0,0,1,.41.9,159,159,0,0,0,14.34,25.52,125.82,125.82,0,0,0,46.55,40.93,180,180,0,0,0,26.05,10.84l-.89,2.69c-2.49-.82-5-1.69-7.44-2.59-24.81-9-46.16-23-62.38-44.17a8.1,8.1,0,0,0-1.78-1.37.88.88,0,0,1,0-.16l-.13-.06c-.05-.21-.09-.42-.14-.63l-.42.37.56.26,0,.16.08.06c-.29,1.89.84,3.4,1.49,5a1059.92,1059.92,0,0,1,43.75,128.76q3.87,14.45,7.25,29l-2.89.68c-6.2-26.6-17.46-66.55-21-73.6-27,28.21-54.33,55.44-82.38,82.16.86,1,1.47,1.73,2.15,2.43l-2.15,2.09c-.8-.84-1.62-1.67-2.43-2.51a14.89,14.89,0,0,1-1.57-2.27c2.38-3.56,2.4-3.53,5.59-5.67a20,20,0,0,0,2.61-2.28q38.41-36.79,75.18-75.23c.79-.82,1.5-1.72,2.29-2.64-.52-1.71-.95-3.29-1.47-4.85q-11.82-35.86-26-70.84c-1.5-3.67-2.92-7.32-5.59-10.41a34.75,34.75,0,0,1-3.63-5.92c-1.21-2.16-2.31-4.38-3.89-7.42-1,1.82-1.62,2.92-2.21,4-1.18,2.24-2.34,4.5-3.5,6.75l-2.56-1.32q2.67-5.22,5.15-10.55a8.12,8.12,0,0,0,.47-6.65c-1.16-3.26-1.8-6.7-2.73-10.05a61.75,61.75,0,0,0-2-6.14,212.93,212.93,0,0,1-12.93-50.9c-2.65-20.31-2.56-40.64-1.1-61,1.57-21.84,5-43.43,8.9-65,4-22,8.16-44,11.86-66,2.22-13.23,3.82-26.56,5.43-39.87C229.65,662,230.81,650.49,231.81,638.94Zm-1.65,347.54a5.61,5.61,0,0,0,2.48,2.31,9,9,0,0,0-3-4.89c-.12-.1-.41,0-.68.11h-.06l0,0v0a1.76,1.76,0,0,0,.1-1.77,7,7,0,0,1-.29-1,.67.67,0,0,1,.06-.12l0,0h-.34a5.05,5.05,0,0,0-.55-.18c-.05,0-.13.11-.2.17h.54l.28,0,.18.07a0,0,0,0,0,0,0,2.24,2.24,0,0,0-.27,1.66,3.52,3.52,0,0,0,.44,1.1l-.06.08h0l.1,0a9.85,9.85,0,0,1,.63,1.16C229.71,985.62,229.91,986.05,230.16,986.48Z"
     id="path174"
     transform="translate(-28.34 -219.02)" />
  <path
     d="M239.82,220.46a1.26,1.26,0,0,1,1.08-.53,1.49,1.49,0,0,1,1.38.84,16.26,16.26,0,0,1,.8,2.35q4.72,18.48,8.22,37.21l-2.92.55c-1.92-10.16-4.13-20.28-6.53-30.35-.29-1.21-.72-2.38-1.29-4.23-.78,1.25-1.27,1.87-1.59,2.56-8.07,17.08-15.83,34.28-22,52.14a224.67,224.67,0,0,0-11,43.78c-1,7.54-1.43,15.16-3.2,22.6-.06.28-.12.55-.16.83l-2.2-.23c.43-2.58.82-5.16,1-7.75a200.74,200.74,0,0,1,4.49-31.92c.36-1.59.61-3.2,1-5.27h-2.17c-.43,0-.85,0-1.27,0l-.17-2.85c1.47-.19,2.93-.46,4.51-.72.25-.63.53-1.22.71-1.84,5.62-20,13.48-39.12,22.08-58,2.55-5.57,5.16-11.12,7.76-16.66A17.61,17.61,0,0,1,239.82,220.46Z"
     id="path176"
     transform="translate(-28.34 -219.02)" />
  <path
     class="cls-5"
     d="M167.84,275c4.1,4.25,11.25,20,13.48,29.88l-14,5.45C163.12,303.58,163.85,281.2,167.84,275Z"
     id="path178"
     transform="translate(-28.34 -219.02)" />
  <path
     d="M167.84,275c-4,6.17-4.72,28.55-.53,35.33l14-5.45C179.09,295,171.94,279.28,167.84,275Zm20.81,30.89a81.3,81.3,0,0,0-23.86,8.58l-1.06-1.92a31.68,31.68,0,0,0-.45-3.31,64,64,0,0,1-1.68-20.21,61.72,61.72,0,0,1,3.88-17.88c.41-1.08.77-2.23,2.71-2.15.77,1.15,1.73,2.46,2.58,3.85a133.2,133.2,0,0,1,12.63,27.44c.41,1.22.52,2.63,2,3.37,3.44-.75,7-1.48,10.54-2.3l.66,2.73C194,304.72,191.33,305.44,188.65,305.92Z"
     id="path180"
     transform="translate(-28.34 -219.02)" />
  <path
     class="cls-7"
     d="M163.93,230.22c1.7-.26,2,1.14,2.51,2.05a354.37,354.37,0,0,1,21.14,41c3.83,8.79,7.41,17.68,10.51,27.05a10.3,10.3,0,0,1-2.12,1.07c-3.54.82-7.1,1.55-10.54,2.3-1.51-.74-1.62-2.15-2-3.37a133.2,133.2,0,0,0-12.63-27.44c-.85-1.39-1.81-2.7-2.58-3.85-1.94-.08-2.3,1.07-2.71,2.15a61.72,61.72,0,0,0-3.88,17.88,64,64,0,0,0,1.68,20.21,31.68,31.68,0,0,1,.45,3.31l-7.91-1.78-4.28-1a10.14,10.14,0,0,1-.46-2.16,254.57,254.57,0,0,1,12-75.2C163.34,231.7,163.66,230.94,163.93,230.22Z"
     id="path182"
     transform="translate(-28.34 -219.02)" />
  <path
     d="M231.29,544.16a66.29,66.29,0,0,1,3.91,9.63A70.73,70.73,0,0,1,238,574.53l-2.72,0a73.23,73.23,0,0,0-2.16-17.79,40.6,40.6,0,0,0-6-13.56c-2.79-4-7-5.93-11.25-7.68a5.12,5.12,0,0,0-2.93,0,46.72,46.72,0,0,0-8.46,2.69,400.53,400.53,0,0,1-43.32,17.3q-5.33,1.74-10.69,3.27l-.79-2.78q4.08-1.15,8.13-2.44c16.91-5.4,33.16-12.42,49.27-19.79,7.05-3.22,12.27-2.69,17.31,2A29.76,29.76,0,0,1,231.29,544.16Z"
     id="path184"
     transform="translate(-28.34 -219.02)" />
  <path
     d="M163.6,224.15c1.93-.41,2.34,1.52,3.07,2.69a364.58,364.58,0,0,1,32.74,67.91c.66,1.82.93,3.87,2.35,5.39a7.48,7.48,0,0,0,1.53.08l.17,2.85a41.28,41.28,0,0,0-6.83,1.05l-.66-2.73a10.3,10.3,0,0,0,2.12-1.07c-3.1-9.37-6.68-18.26-10.51-27.05a354.37,354.37,0,0,0-21.14-41c-.54-.91-.81-2.31-2.51-2.05-.27.72-.59,1.48-.84,2.26a254.57,254.57,0,0,0-12,75.2,10.14,10.14,0,0,0,.46,2.16l4.28,1-.56,2.46-.39-.06a29.11,29.11,0,0,0-11.3,1l-.87-2.65c1.61-.39,3.26-.84,5-1.27.13-1.36.31-2.64.35-3.92a267.27,267.27,0,0,1,5.55-49.81,255.72,255.72,0,0,1,8-29.2C162,226.13,162.11,224.46,163.6,224.15Z"
     id="path186"
     transform="translate(-28.34 -219.02)" />
  <path
     d="M201.39,413.38c1.08-1.17,2.33-1,3.94.39a24.17,24.17,0,0,1-9.15,13.41c-7.91,5.78-16.27,10.82-26.33,12.05-3.64.44-7.24.77-10.85-.2a17,17,0,0,0-2.95-.37c-8.39-.75-14.44,2.64-18.1,10.24-.5,1-.83,2.18-1.41,3.17-.28.48-1,1.05-1.46,1a1.91,1.91,0,0,1-1.2-1.31,17.22,17.22,0,0,1,1.93-10.58c3.38-6.06,8.4-9.66,15.59-9.79,6.29-.12,12.58-.48,18.87-.49,8.12,0,15.16-3.1,21.81-7.31a22.69,22.69,0,0,0,6.57-6.7A29,29,0,0,1,201.39,413.38Z"
     id="path188"
     transform="translate(-28.34 -219.02)" />
  <path
     d="M163.73,312.58l1.06,1.92c-4.47,2.37-8.81,5.05-13,7.87-7,4.66-13.42,10.23-20,15.48a16.23,16.23,0,0,0-1.51,1.37l-2-1.55a133.29,133.29,0,0,1,27.48-21.12c.81-.47,1.54-1.08,2.85-2a28.12,28.12,0,0,0-3.25-1.28l.56-2.46Z"
     id="path190"
     transform="translate(-28.34 -219.02)" />
  <path
     class="cls-8"
     d="M159,439c3.61,1,7.21.64,10.85.2,10.06-1.23,18.42-6.27,26.33-12.05a24.17,24.17,0,0,0,9.15-13.41c-1.61-1.4-2.86-1.56-3.94-.39a29,29,0,0,0-2.74,3.51,22.69,22.69,0,0,1-6.57,6.7c-6.65,4.21-13.69,7.29-21.81,7.31-6.29,0-12.58.37-18.87.49-7.19.13-12.21,3.73-15.59,9.79a17.22,17.22,0,0,0-1.93,10.58,1.91,1.91,0,0,0,1.2,1.31c.45.05,1.18-.52,1.46-1,.58-1,.91-2.13,1.41-3.17,3.66-7.6,9.71-11,18.1-10.24A17,17,0,0,1,159,439Zm188.31,210c1.2.23,2.38.62,3.62.94.75,1.93.37,3.94.39,5.9a87.73,87.73,0,0,0,11.55,42.7c1.38,2.45,3.08,4.71,4.63,7.06.63,1,1.31,1.9,1.89,2.9a5,5,0,0,1,.32,4.72,76,76,0,0,0-2.77,8.5c-2.82,10.46-3.1,20.93.38,31.33a45.69,45.69,0,0,0,19.87,25.23C394.78,783,403,785.12,411.9,783a11.85,11.85,0,0,1,2-.27c2.63-.19,3.61.5,4.17,3.13,2.9,13.59,9.33,25.43,18,36.13a100.1,100.1,0,0,0,9.54,10.11,5.74,5.74,0,0,1,1.86,6.54A76.08,76.08,0,0,0,444.76,859c0,1.23,0,2.47.1,3.71a44.1,44.1,0,0,0,3.74,16.37c5.26,11.48,14.28,18,26.72,19.69a23.08,23.08,0,0,0,13.49-2.46c1.16-.56,2.3-1.15,3.82-1.91.11,1.71.24,3,.26,4.24a110.77,110.77,0,0,0,10.78,46.59,106.1,106.1,0,0,0,32.71,40,19.7,19.7,0,0,0,3.31,2.18c.59.27,1.46-.07,2.58-.16a15.42,15.42,0,0,0-1-2.6c-9.23-14.77-10.66-30.69-7.1-47.37a99.73,99.73,0,0,1,13-31.56,159.14,159.14,0,0,1,18.31-24.11c12.08-13.21,24.3-26.28,36.52-39.37,7.35-7.87,14.78-15.67,22.18-23.49,10.94-11.55,21.66-23.26,30.72-36.68.48-.72,1-1.43,1.43-2.16,1.42,0,2.89-.06,4.35,0,17.88.72,35.77,1.4,53.59,3.11,16.65,1.59,33.24,3.74,49.52,7.76,4,1,7.84,2.6,11.84,3.51,7.17,1.61,13.84,4.48,20.42,7.59a96.2,96.2,0,0,1,43.6,40.7A149,149,0,0,1,850,865.45a181.23,181.23,0,0,1,5.59,18.74,258.88,258.88,0,0,1,6.21,40.72,296.55,296.55,0,0,1-.42,49.15c-.8,9.18-1.95,18.31-3.39,27.39-1.84,11.67-4.16,23.27-6.8,34.82-8.06,35.23-19,69.63-29.81,104.06-10.61,33.82-20.63,67.8-28.94,102.26-5.93,24.63-11.26,49.4-15.45,74.4q-1.56,9.3-3.06,18.61-2.88,17.91-5.47,35.86c-1.8,12.62-3.2,25.31-4.4,38-1.71,18.14-3.26,36.3-4.52,54.48-.85,12.23-1.07,24.5-1.58,36.75-.08,1.8-.2,3.6-.32,5.69a309.09,309.09,0,0,1-34.24,3.19c-10.1.36-20.21.22-30.32.25-4.29,0-8.6,0-13.08-1.45a17.44,17.44,0,0,1-.13-3.12c2.28-20.24,4.26-40.53,7-60.71q2.13-15.9,4.72-31.7,7.75-47.43,19.3-94.13a224.41,224.41,0,0,0,5.11-27.33c2.45-20.61-1.76-39.52-14.19-56.39a164.14,164.14,0,0,0-16.05-18.29c-4.8-4.81-9.67-9.55-14.5-14.33-.91-.89-1.8-1.79-2.69-2.7-27.47-28.08-45.88-61.43-56.48-99.27a229.11,229.11,0,0,1-8.45-66.92c.05-2,.11-3.9.2-5.85.14-3,.2-6,.27-8.94a3.89,3.89,0,0,0-.43-1.1,7.14,7.14,0,0,0-2.26,0,31.53,31.53,0,0,0-3.61,1.64,399.76,399.76,0,0,1-99.52,31.78,394.08,394.08,0,0,1-70.45,6.35q-7.32,0-14.66-.27a394.44,394.44,0,0,1-100.66-16.73c-1.29-.39-2.57-.8-3.85-1.22a180,180,0,0,1-26.05-10.84,125.82,125.82,0,0,1-46.55-40.93,159,159,0,0,1-14.34-25.52,5.26,5.26,0,0,0-.41-.9c-1.83-2.61-.9-6-3-8.77-1.93-2.51-2.66-6-3.73-9.1s-1.84-6-2.66-9c-.86-3.2-1.69-6.41-2.42-9.64-.7-3.06-1.32-6.15-1.86-9.25-.56-3.26-1-6.55-1.43-9.83q-.61-4.68-1.05-9.38a311.87,311.87,0,0,1-.11-51.14c1.57-21.84,5-43.42,8.85-65,4-22.16,8.22-44.28,11.95-66.49,2.22-13.22,3.89-26.55,5.39-39.88,1.78-15.8,3.13-31.64,4.6-47.48.42-4.61.66-9.25.85-13.89.5-11.92,1.06-23.83,1.32-35.76,0-.62,0-1.24,0-1.86a70.73,70.73,0,0,0-2.83-20.74,66.29,66.29,0,0,0-3.91-9.63,29.76,29.76,0,0,0-6.85-8.45c-5-4.71-10.26-5.24-17.31-2-16.11,7.37-32.36,14.39-49.27,19.79q-4.05,1.29-8.13,2.44a201.57,201.57,0,0,1-36,6.81,167,167,0,0,1-23.24.21c-.61-1.27.21-1.57.92-2a51,51,0,0,0,13.83-11.21,51.65,51.65,0,0,0,11.66-23.83c.26-1.29.59-2.57.86-3.78a59.14,59.14,0,0,0,6.12-2.17c1.11-.53,1-1.6-.17-2.35a2.7,2.7,0,0,0-.94,0c-4.31,1.8-8.08,1-11.39-2.27-.23-.23-.48-.56-.76-.61a3.57,3.57,0,0,0-1.8-.07c-.71.25-.73,1.43,0,2.11,1.73,1.52,3.54,2.92,5.57,4.58.28,1.91-.36,4-.9,6-3.89,14.55-12.42,25.36-26,32.22a14.44,14.44,0,0,1-9.45,1.67c-.28,0-.56-.1-.84-.16a115.48,115.48,0,0,1-26.72-9.1,42.92,42.92,0,0,1-11-7.6c-6.79-6.62-8.47-14.4-5-23.18a46.07,46.07,0,0,1,4.19-7.87,77.93,77.93,0,0,1,5.92-8c13.48-16,26-32.7,38.78-49.18,1.32-1.7,2.67-3.38,4-5.11a6.88,6.88,0,0,1,4-2.64c13.37-3.58,24.93-10.57,35.51-19.3a174,174,0,0,0,19.9-19.44c6.13-7,12.05-14.11,18.19-21.07s12.58-14.09,19-21c2.59-2.79,5.57-5.21,8.28-7.89s6.44-3.94,10.07-5.36a61.5,61.5,0,0,1,.3-6.23c0-.28.1-.55.16-.83,1.77-7.44,2.19-15.06,3.2-22.6a224.67,224.67,0,0,1,11-43.78c6.21-17.86,14-35.06,22-52.14.32-.69.81-1.31,1.59-2.56.57,1.85,1,3,1.29,4.23,2.4,10.07,4.61,20.19,6.53,30.35s3.56,20.38,4.81,30.67c1.34,11,2.41,22.06,3.56,33.1.21,2,.21,4,.35,6a5.14,5.14,0,0,1-1.05,3.71c-2,2.62-3.94,5.31-6,8.11-.91.1-1.87.26-2.85.32l-1.11,0-1.62,0c-1.25-1.63-.61-3.16-.57-4.58A109.86,109.86,0,0,0,236,293.48c-.64-1.6-.91-3.56-2.64-4.45-1.84.17-2.05,1.64-2.52,2.81a154.94,154.94,0,0,0-10.57,49.33c-.08,2.45-.22,4.94,1.24,7.46a86.18,86.18,0,0,0,9.25-1.51,55.56,55.56,0,0,1,15.33-1.49l4.92.08c1.86,0,3.71.1,5.54.22a99.31,99.31,0,0,1,51.75,18.16,117.32,117.32,0,0,1,29.64,30.47c11.27,16.62,19,34.84,24.49,54.08a323.42,323.42,0,0,1,9.13,46.26c2.21,16.93,3.53,33.94,4.83,51,.13,1.64.16,3.3.24,5-1.4,1.3-2.74,2.52-4.06,3.76a156.28,156.28,0,0,0-19.66,21.71c-7.62,10.37-13.62,21.56-16.77,34.12-1.79,7.11-2.71,14.31-1.6,21.66a25,25,0,0,0,4.22,11c2.08,2.9,4.62,5.17,8.32,5.81Z"
     id="path192"
     transform="translate(-28.34 -219.02)" />
  <path
     d="M108.45,294.05a19.86,19.86,0,0,1,14.91,1.79,17.83,17.83,0,0,1,8.08,9.12c.5,1.23.87,2.51,1.46,3.69,1.51,3,3.61,4.15,6.89,3.53,1-.18,1.93-.4,2.91-.64l.87,2.65c-.32.09-.64.2-1,.31a11.46,11.46,0,0,1-6.82.43,16.35,16.35,0,0,0-2-.22c-.14,2-.26,3.75-.37,5.4-1.78.64-2.45-.2-2.64-1.51-.44-3-.65-5.93-1.2-8.86-1-5.55-3.9-9.87-9.28-12-5.2-2.09-10.29-2-15.34,1.55,0,1.6,0,3.24,0,4.89a5.51,5.51,0,0,1-.26,2,1.56,1.56,0,0,1-1.11.82,1.44,1.44,0,0,1-1.17-.64,6.6,6.6,0,0,1-.44-2.37c0-3.48.05-7,.15-10.43a36.41,36.41,0,0,0-.63-8.37l2.7-.52c.27,1.38.5,2.77.74,4.14.32,1.78.32,3.61.48,5.73A30.46,30.46,0,0,0,108.45,294.05Z"
     id="path194"
     transform="translate(-28.34 -219.02)" />
  <path
     d="M155.93,1255.25c13.72,9,27.54,17.79,41.31,26.7a330.07,330.07,0,0,1,41.46,31.59c9.24,8.31,18.41,16.69,27.63,25a367.6,367.6,0,0,0,29.46,24.4c1.43,1,2.75,2.35,4.71,2.83a15.45,15.45,0,0,0,1.88-2.1l2.68,1.25c-.68,1-1.32,1.9-1.94,2.81a23.3,23.3,0,0,0,1.88,2.33l-2.16,2c-1.65-1.36-3.32-2.7-5.06-3.94-13.12-9.34-25.32-19.79-37.29-30.53-9.25-8.3-18.46-16.64-27.77-24.88a314.86,314.86,0,0,0-39.2-29.66c-10.33-6.6-20.68-13.17-31-19.81a336.07,336.07,0,0,1-35-25.32,158.66,158.66,0,0,1-26.61-28.07,110.1,110.1,0,0,1-11.18-18.76,72.63,72.63,0,0,1-3-7.72l2.67-.86c.29.86.63,1.72,1,2.59,1.88,4.23,3.87,8.44,6.13,12.47,7.82,13.88,18.38,25.48,30.34,35.87A266.83,266.83,0,0,0,155.93,1255.25Z"
     id="path196"
     transform="translate(-28.34 -219.02)" />
  <path
     d="M217.73,991c-2,3.93-4.06,7.85-6.23,11.7A376.68,376.68,0,0,1,176,1054.18c-14.16,17.52-28.7,34.74-43,52.14-10.52,12.79-21.09,25.56-30.53,39.19-3.77,5.44-7.24,11.09-10.63,16.78a23.6,23.6,0,0,0-2.35,20.27l-2.67.86c-.28-.84-.54-1.67-.79-2.51a22.83,22.83,0,0,1,1.51-16.48,85.53,85.53,0,0,1,6-10.82,462.26,462.26,0,0,1,31.05-41.92c14.41-17.54,29-34.9,43.44-52.46,13.66-16.67,26.51-34,37.63-52.46q5-8.38,9.51-17.09Z"
     id="path198"
     transform="translate(-28.34 -219.02)" />
  <path
     d="M127.91,341.76c-2.06,2.37-4,4.79-6,7.21a126.12,126.12,0,0,0-25,47c-1.24,4.47-2.52,8.92-4,13.32a30.85,30.85,0,0,1-6.51,11.62,81.68,81.68,0,0,1-6.14,5.95l-1.76-1.95c1.24-1.08,2.44-2.24,3.6-3.46a38.76,38.76,0,0,0,8.67-14.92q1.53-4.72,2.77-9.54c4.32-17,12.22-32.13,22.83-45.95,1-1.3,2-2.63,3-4-2.64-1.34-5.17-2.44-7.5-3.87a15.75,15.75,0,0,1-5.7-6.77,17.73,17.73,0,0,1-1.92-8.15c.06-2.79.56-5.57.91-8.69-1.62-.13-3.24-.28-4.86-.4-3.14-.23-6.28-.42-9.42-.66C84.58,318,82,315.75,81,309.41c-.42-2.86-.71-5.74-1-8.62l2.34-.22c.19,2.21.52,4.42.9,6.63a16.91,16.91,0,0,0,1.49,4.19,6.45,6.45,0,0,0,5.35,4c5.1.41,10.24.58,15.36.7,2.64.06,5.28-.21,7.92-.25a3.73,3.73,0,0,1,1.89.46c.32.18.48.79.55,1.24a1,1,0,0,1-.44.8c-1.58.46-3.18.87-4.78,1.25a3.46,3.46,0,0,0-2.68,2.62c-2.43,8.13,2,17.46,9.74,20.56,3.42,1.36,4.39,1.18,7-1.52,1.15-1.21,2.32-2.39,3.5-3.56l2,1.55C129.41,340,128.66,340.9,127.91,341.76Z"
     id="path200"
     transform="translate(-28.34 -219.02)" />
  <path
     d="M122.76,517.64a2.7,2.7,0,0,1,.94,0c1.15.75,1.28,1.82.17,2.35a59.14,59.14,0,0,1-6.12,2.17c-.27,1.21-.6,2.49-.86,3.78a51.65,51.65,0,0,1-11.66,23.83A51,51,0,0,1,91.4,561c-.71.4-1.53.7-.92,2a167,167,0,0,0,23.24-.21,201.57,201.57,0,0,0,36-6.81l.79,2.78a196.69,196.69,0,0,1-36.28,7,134.35,134.35,0,0,1-36.66-1.44l.52-2.91a14.44,14.44,0,0,0,9.45-1.67c13.55-6.86,22.08-17.67,26-32.22.54-2,1.18-4.13.9-6-2-1.66-3.84-3.06-5.57-4.58-.77-.68-.75-1.86,0-2.11a3.57,3.57,0,0,1,1.8.07c.28,0,.53.38.76.61C114.68,518.61,118.45,519.44,122.76,517.64Z"
     id="path202"
     transform="translate(-28.34 -219.02)" />
  <path
     d="M77.58,564.22a110.8,110.8,0,0,1-23.24-7,59.3,59.3,0,0,1-14.2-8.1c-4.76-3.83-8.38-8.47-9.87-14.52a5.79,5.79,0,0,0-1.93-3.38v-4c.59-.74,1.53-1.41,1.71-2.24,1.34-6.16,4.58-11.32,8.26-16.26,1.29-1.73,2.67-3.39,4-5.08l2.31,1.75a77.93,77.93,0,0,0-5.92,8,46.07,46.07,0,0,0-4.19,7.87c-3.43,8.78-1.75,16.56,5,23.18a42.92,42.92,0,0,0,11,7.6,115.48,115.48,0,0,0,26.72,9.1c.28.06.56.12.84.16Z"
     id="path204"
     transform="translate(-28.34 -219.02)" />
  <path
     d="M192.25,359.8c-2.71,2.68-5.69,5.1-8.28,7.89q-9.63,10.37-19,21c-6.14,7-12.06,14.11-18.19,21.07a174,174,0,0,1-19.9,19.44c-10.58,8.73-22.14,15.72-35.51,19.3a6.88,6.88,0,0,0-4,2.64c-1.3,1.73-2.65,3.41-4,5.11-12.81,16.48-25.3,33.21-38.78,49.18l-2.31-1.75,39.28-50.05a5.78,5.78,0,0,0,1.47-2.93c-1.55,0-2.8-.08-4,0-1.93.08-3.86.13-5.79.13l0-2.91a70.41,70.41,0,0,0,31.07-7.5,99.46,99.46,0,0,0,17.58-11.15,156.5,156.5,0,0,0,20.3-19c6.64-7.39,13.12-14.92,19.6-22.45,7.23-8.42,14.39-16.9,22.41-24.59,4-3.88,8-8,13.26-10.29a4.73,4.73,0,0,0,2.77-3.85l.18-1.1,2.2.23a61.5,61.5,0,0,0-.3,6.23C198.69,355.86,195,357.05,192.25,359.8Z"
     id="path206"
     transform="translate(-28.34 -219.02)" />
  <path
     class="cls-6"
     d="M120.32,297.71c5.38,2.16,8.24,6.48,9.28,12,.55,2.93.76,5.91,1.2,8.86.19,1.31.86,2.15,2.64,1.51.11-1.65.23-3.39.37-5.4a16.35,16.35,0,0,1,2,.22,11.46,11.46,0,0,0,6.82-.43c.32-.11.64-.22,1-.31a29.11,29.11,0,0,1,11.3-1l.39.06a28.12,28.12,0,0,1,3.25,1.28c-1.31.93-2,1.54-2.85,2a133.29,133.29,0,0,0-27.48,21.12c-1.18,1.17-2.35,2.35-3.5,3.56-2.58,2.7-3.55,2.88-7,1.52-7.77-3.1-12.17-12.43-9.74-20.56a3.46,3.46,0,0,1,2.68-2.62c1.6-.38,3.2-.79,4.78-1.25a1,1,0,0,0,.44-.8c-.07-.45-.23-1.06-.55-1.24a3.73,3.73,0,0,0-1.89-.46c-2.64,0-5.28.31-7.92.25-5.12-.12-10.26-.29-15.36-.7a6.45,6.45,0,0,1-5.35-4,16.91,16.91,0,0,1-1.49-4.19c-.38-2.21-.71-4.42-.9-6.63a34.5,34.5,0,0,1,1.07-13.06,22.49,22.49,0,0,0,.66-4.86c0-.25-.65-.64-1.06-.8a.93.93,0,0,0-.86.29c-.62,1.33-1.17,2.69-2,4.61-5.24.91-9.48-.92-12.84-4.75a26,26,0,0,1-3.26-5.52c-.74-1.47-1.19-3.09-1.86-4.59a11.6,11.6,0,0,0-10.42-7.25c-1.1-.08-2.2-.09-3.37-.14.21-.55.23-1,.44-1.12a17.28,17.28,0,0,1,16.48-2.46,11.25,11.25,0,0,1,5.91,4.36c3.32,4.93,8,6.71,13.71,6.17.66-.06,1.32,0,2,0,6.24-.17,10.32,3,12.8,8.46a24.92,24.92,0,0,1,1.69,5.23,36.41,36.41,0,0,1,.63,8.37c-.1,3.48-.14,6.95-.15,10.43a6.6,6.6,0,0,0,.44,2.37,1.44,1.44,0,0,0,1.17.64,1.56,1.56,0,0,0,1.11-.82,5.51,5.51,0,0,0,.26-2c0-1.65,0-3.29,0-4.89C110,295.74,115.12,295.62,120.32,297.71Z"
     id="path208"
     transform="translate(-28.34 -219.02)" />
  <path
     d="M61.2,449.75A52,52,0,0,1,36.45,437.8a15,15,0,0,1-2.14-2.65c-.29-.42.44-1.5,1-1.42a8.81,8.81,0,0,1,2.36.53c7.34,3.27,14.79,3.09,22.34.85a48.79,48.79,0,0,0,18.52-10.23l1.76,1.95c-9.19,7.93-19.84,12.91-32.87,12.91-.6,0-1.36-.16-1.46,1a15.49,15.49,0,0,0,1.52,1,52.58,52.58,0,0,0,21.34,6q2.25.15,4.47.15l0,2.91A61,61,0,0,1,61.2,449.75Z"
     id="path210"
     transform="translate(-28.34 -219.02)" />
  <path
     class="cls-2"
     d="M204.73,303h2.17c-.39,2.07-.64,3.68-1,5.27a200.74,200.74,0,0,0-4.49,31.92c-.17,2.59-.56,5.17-1,7.75l-.18,1.1a4.73,4.73,0,0,1-2.77,3.85c-5.26,2.34-9.21,6.41-13.26,10.29-8,7.69-15.18,16.17-22.41,24.59-6.48,7.53-13,15.06-19.6,22.45a156.5,156.5,0,0,1-20.3,19,99.46,99.46,0,0,1-17.58,11.15,70.41,70.41,0,0,1-31.07,7.5q-2.22,0-4.47-.15a52.58,52.58,0,0,1-21.34-6,15.49,15.49,0,0,1-1.52-1c.1-1.13.86-1,1.46-1,13,0,23.68-5,32.87-12.91a81.68,81.68,0,0,0,6.14-5.95,30.85,30.85,0,0,0,6.51-11.62c1.44-4.4,2.72-8.85,4-13.32a126.12,126.12,0,0,1,25-47c2-2.42,4-4.84,6-7.21.75-.86,1.5-1.73,2.29-2.54a16.23,16.23,0,0,1,1.51-1.37c6.61-5.25,13-10.82,20-15.48,4.24-2.82,8.58-5.5,13-7.87a81.3,81.3,0,0,1,23.86-8.58c2.68-.48,5.32-1.2,8-1.8a41.28,41.28,0,0,1,6.83-1.05C203.88,303.05,204.3,303,204.73,303Z"
     id="path212"
     transform="translate(-28.34 -219.02)" />
  <path
     d="M99.82,279.88c-2.48-5.45-6.56-8.63-12.8-8.46-.67,0-1.33,0-2,0-5.75.54-10.39-1.24-13.71-6.17a11.25,11.25,0,0,0-5.91-4.36,17.28,17.28,0,0,0-16.48,2.46c-.21.15-.23.57-.44,1.12,1.17.05,2.27.06,3.37.14a11.6,11.6,0,0,1,10.42,7.25c.67,1.5,1.12,3.12,1.86,4.59A26,26,0,0,0,67.4,282c3.36,3.83,7.6,5.66,12.84,4.75.81-1.92,1.36-3.28,2-4.61a.93.93,0,0,1,.86-.29c.41.16,1.08.55,1.06.8a22.49,22.49,0,0,1-.66,4.86,34.5,34.5,0,0,0-1.07,13.06l-2.34.22c-.21-2.23-.39-4.47-.61-6.7-.12-1.13-.21-2.27-.33-3.63l-3.92-.75C68.87,288.51,64.37,285,62,279c-.74-1.85-1.33-3.76-2.2-5.54-2.88-5.9-9-7.63-14.63-4.19-1,.6-1.89,1.31-2.89,1.87-.64.36-1.82-.62-1.67-1.33a6.18,6.18,0,0,1,.45-1.4c4.39-9.49,16.55-14.18,26.12-10.09a15.08,15.08,0,0,1,6.65,5.07c2.88,4.12,6.8,5.57,11.63,5.06a4.26,4.26,0,0,1,.5,0c8.62-.1,14.14,3.54,17.08,11.64a30.64,30.64,0,0,1,1.2,4.54l-2.7.52A24.92,24.92,0,0,0,99.82,279.88Z"
     id="path214"
     transform="translate(-28.34 -219.02)" />
</svg>
